<svg width="35" height="35" viewBox="0 0 50 50" fill="none" xmlns="http://www.w3.org/2000/svg">
<path d="M2.77787 2.77779C3.51459 2.04108 4.51379 1.62719 5.55566 1.62719C6.59753 1.62718 7.59673 2.04106 8.33344 2.77778L47.2223 41.6666C47.959 42.4034 48.3729 43.4025 48.3729 44.4444C48.3729 45.4863 47.959 46.4855 47.2223 47.2222C46.4856 47.9589 45.4864 48.3728 44.4445 48.3728C43.4026 48.3728 42.4034 47.9589 41.6667 47.2222L2.77786 8.33336C2.04114 7.59665 1.62726 6.59745 1.62727 5.55558C1.62727 4.51371 2.04116 3.51451 2.77787 2.77779Z" fill="white"/>
<path d="M2.77778 47.2222C2.04106 46.4855 1.62718 45.4863 1.62718 44.4444C1.62718 43.4026 2.04106 42.4034 2.77778 41.6667L41.6666 2.77779C42.4034 2.04108 43.4025 1.62719 44.4444 1.62719C45.4863 1.62719 46.4855 2.04108 47.2222 2.77779C47.9589 3.5145 48.3728 4.51369 48.3728 5.55556C48.3728 6.59743 47.9589 7.59663 47.2222 8.33334L8.33333 47.2222C7.59662 47.9589 6.59742 48.3728 5.55555 48.3728C4.51368 48.3728 3.51449 47.9589 2.77778 47.2222Z" fill="white"/>
</svg>
