<svg width="24" height="24" viewBox="0 0 24 24" fill="none" xmlns="http://www.w3.org/2000/svg">
<path d="M13.0392 6.63734C13.6127 6.06387 14.3905 5.7417 15.2015 5.7417C16.0125 5.7417 16.7903 6.06387 17.3638 6.63734C17.9372 7.21082 18.2594 7.98861 18.2594 8.79962C18.2594 9.61063 17.9372 10.3884 17.3638 10.9619C16.7903 11.5354 16.0125 11.8575 15.2015 11.8575C14.3905 11.8575 13.6127 11.5354 13.0392 10.9619C12.4657 10.3884 12.1436 9.61063 12.1436 8.79962C12.1436 7.98861 12.4657 7.21082 13.0392 6.63734ZM16.0661 7.93373C15.9525 7.82018 15.8176 7.73013 15.6692 7.6687C15.5208 7.60728 15.3617 7.5757 15.201 7.57575C15.0404 7.57581 14.8813 7.60751 14.733 7.66903C14.5846 7.73056 14.4497 7.82071 14.3362 7.93434C14.2226 8.04797 14.1326 8.18286 14.0712 8.33129C14.0097 8.47972 13.9782 8.6388 13.9782 8.79944C13.9783 8.96008 14.01 9.11914 14.0715 9.26753C14.133 9.41592 14.2232 9.55074 14.3368 9.66429C14.5675 9.88707 14.8764 10.0103 15.1971 10.0076C15.5177 10.0048 15.8245 9.87615 16.0512 9.64939C16.278 9.42264 16.4066 9.11589 16.4094 8.79522C16.4122 8.47455 16.2889 8.16562 16.0661 7.93495V7.93373Z" fill="white"/>
<path d="M21.1613 0.6214C21.6821 0.78325 22.1558 1.06932 22.5414 1.45496C22.927 1.8406 23.2131 2.31424 23.375 2.83504L23.6281 3.64834C24.0745 5.08499 24.1199 6.61632 23.7593 8.07687C23.3987 9.53742 22.6458 10.8717 21.582 11.9354L20.3615 13.156C20.9777 13.9798 21.2763 14.9981 21.2027 16.0242C21.129 17.0503 20.6879 18.0154 19.9603 18.7427L18.4413 20.2617C18.2694 20.4335 18.0362 20.5299 17.7932 20.5299C17.5501 20.5299 17.3169 20.4335 17.145 20.2617L15.2004 18.3171L14.9839 18.5336C14.7852 18.7323 14.5492 18.89 14.2895 18.9976C14.0298 19.1052 13.7515 19.1605 13.4704 19.1605C13.1893 19.1605 12.911 19.1052 12.6513 18.9976C12.3917 18.89 12.1557 18.7323 11.957 18.5336L11.3614 17.938L10.3695 19.638C10.2988 19.7592 10.2013 19.8626 10.0844 19.9402C9.96747 20.0179 9.83431 20.0676 9.69514 20.0857C9.55598 20.1038 9.41452 20.0897 9.28166 20.0445C9.1488 19.9993 9.02808 19.9242 8.92879 19.8251L4.17129 15.0688C4.07268 14.9701 3.99788 14.8502 3.95259 14.7182C3.9073 14.5863 3.89271 14.4457 3.90993 14.3073C3.92715 14.1688 3.97572 14.0361 4.05195 13.9193C4.12818 13.8024 4.23007 13.7045 4.34985 13.633L6.04249 12.6191L5.46768 12.0443C5.26891 11.8455 5.11124 11.6096 5.00367 11.3499C4.8961 11.0902 4.84073 10.8119 4.84073 10.5308C4.84073 10.2497 4.8961 9.97141 5.00367 9.71173C5.11124 9.45205 5.26891 9.21609 5.46768 9.01735L5.68782 8.79721L3.74079 6.85262C3.65555 6.76744 3.58794 6.6663 3.5418 6.55497C3.49567 6.44365 3.47192 6.32432 3.47192 6.20382C3.47192 6.08331 3.49567 5.96399 3.5418 5.85266C3.58794 5.74134 3.65555 5.6402 3.74079 5.55501L5.26099 4.03482C5.98862 3.30731 6.95407 2.86643 7.98038 2.79298C9.00669 2.71952 10.0251 3.01843 10.8489 3.63489L12.067 2.418C13.1303 1.35466 14.4639 0.601962 15.9237 0.241152C17.3836 -0.119657 18.9142 -0.0748688 20.3505 0.370683L21.1613 0.6214ZM21.6236 3.38051C21.5501 3.14368 21.42 2.9283 21.2446 2.75294C21.0693 2.57759 20.8539 2.44752 20.6171 2.37397L19.8074 2.12325C18.6903 1.77629 17.4996 1.74112 16.3639 2.02154C15.2282 2.30196 14.1907 2.88732 13.3634 3.71439L6.76407 10.315C6.70693 10.3723 6.67485 10.4499 6.67485 10.5308C6.67485 10.6117 6.70693 10.6894 6.76407 10.7467L13.2546 17.2372C13.3119 17.2943 13.3895 17.3264 13.4704 17.3264C13.5514 17.3264 13.629 17.2943 13.6863 17.2372L20.2856 10.6391C21.1127 9.81154 21.698 8.77377 21.9782 7.63785C22.2584 6.50192 22.2229 5.31103 21.8756 4.19381L21.6236 3.38051Z" fill="white"/>
<path d="M5.25264 20.0465C5.41981 19.8736 5.51238 19.6419 5.5104 19.4014C5.50842 19.1609 5.41207 18.9308 5.24208 18.7607C5.07209 18.5905 4.84208 18.4939 4.60158 18.4917C4.36107 18.4895 4.12933 18.5819 3.95625 18.7489L0.928087 21.7758C0.761081 21.9489 0.668734 22.1807 0.670937 22.4212C0.673139 22.6617 0.769715 22.8917 0.939862 23.0617C1.11001 23.2316 1.34012 23.328 1.58062 23.33C1.82112 23.332 2.05278 23.2394 2.2257 23.0722L5.25264 20.0465Z" fill="white"/>
<path d="M2.87371 16.3714C3.04548 16.5434 3.14197 16.7765 3.14197 17.0196C3.14197 17.2627 3.04548 17.4958 2.87371 17.6678L1.57732 18.9642C1.49275 19.0518 1.39157 19.1218 1.27968 19.1699C1.1678 19.218 1.04745 19.2434 0.925656 19.2445C0.803864 19.2456 0.68307 19.2224 0.570322 19.1764C0.457573 19.1303 0.355128 19.0622 0.268964 18.9762C0.1828 18.8901 0.114643 18.7877 0.0684692 18.675C0.0222957 18.5623 -0.000969577 18.4415 3.09524e-05 18.3197C0.00103148 18.1979 0.0262779 18.0776 0.0742969 17.9656C0.122316 17.8537 0.192146 17.7524 0.279712 17.6678L1.5761 16.3714C1.66128 16.2862 1.76243 16.2186 1.87375 16.1724C1.98508 16.1263 2.1044 16.1025 2.22491 16.1025C2.34541 16.1025 2.46474 16.1263 2.57606 16.1724C2.68739 16.2186 2.78853 16.2862 2.87371 16.3714Z" fill="white"/>
<path d="M7.62753 22.4265C7.71765 22.3425 7.78993 22.2412 7.84007 22.1287C7.8902 22.0162 7.91716 21.8947 7.91933 21.7716C7.9215 21.6484 7.89885 21.5261 7.85271 21.4119C7.80658 21.2976 7.73792 21.1939 7.65081 21.1068C7.56371 21.0197 7.45996 20.951 7.34575 20.9049C7.23153 20.8588 7.1092 20.8361 6.98603 20.8383C6.86287 20.8405 6.74141 20.8674 6.6289 20.9175C6.51638 20.9677 6.41512 21.04 6.33114 21.1301L5.03598 22.424C4.87395 22.5979 4.78575 22.8279 4.78994 23.0655C4.79413 23.3031 4.8904 23.5299 5.05845 23.6979C5.22651 23.866 5.45324 23.9623 5.69087 23.9664C5.9285 23.9706 6.15848 23.8824 6.33237 23.7204L7.62875 22.4265H7.62753Z" fill="white"/>
</svg>
