<svg width="94" height="33" viewBox="0 0 94 33" fill="none" xmlns="http://www.w3.org/2000/svg">
<path d="M27.104 16.448C27.656 16.448 28.052 16.568 28.292 16.808C28.556 17.048 28.688 17.36 28.688 17.744C28.688 18.368 28.496 18.92 28.112 19.4C27.752 19.88 27.176 20.132 26.384 20.156C24.464 20.204 22.76 20.06 21.272 19.724C19.568 23.3 17.504 26.276 15.08 28.652C12.68 31.004 10.268 32.18 7.844 32.18C5.348 32.18 3.488 30.728 2.264 27.824C1.04 24.92 0.428 20.996 0.428 16.052C0.428 11.828 0.728 8.036 1.328 4.676C1.544 3.428 1.844 2.588 2.228 2.156C2.636 1.7 3.32 1.472 4.28 1.472C5.864 1.472 6.656 2.156 6.656 3.524C6.656 3.668 6.632 3.932 6.584 4.316C5.864 8.636 5.504 12.548 5.504 16.052C5.504 19.724 5.804 22.52 6.404 24.44C7.028 26.336 7.952 27.284 9.176 27.284C10.424 27.284 11.78 26.42 13.244 24.692C14.708 22.964 16.052 20.792 17.276 18.176C15.812 17.264 14.708 16.088 13.964 14.648C13.22 13.184 12.848 11.504 12.848 9.608C12.848 7.712 13.136 6.116 13.712 4.82C14.312 3.5 15.116 2.516 16.124 1.868C17.156 1.22 18.296 0.895999 19.544 0.895999C21.08 0.895999 22.292 1.448 23.18 2.552C24.092 3.656 24.548 5.168 24.548 7.088C24.548 9.848 23.948 12.86 22.748 16.124C24.02 16.34 25.472 16.448 27.104 16.448ZM16.484 9.356C16.484 11.708 17.24 13.448 18.752 14.576C19.688 11.888 20.156 9.668 20.156 7.916C20.156 6.908 20.024 6.176 19.76 5.72C19.496 5.24 19.136 5 18.68 5C18.032 5 17.504 5.384 17.096 6.152C16.688 6.896 16.484 7.964 16.484 9.356ZM44.0724 32.18C42.6804 32.18 41.1084 32.06 39.3564 31.82C38.3964 31.7 37.7364 31.448 37.3764 31.064C37.0164 30.68 36.8604 30.056 36.9084 29.192C37.0764 26.816 37.4724 23.888 38.0964 20.408C38.7204 16.904 39.4764 13.532 40.3644 10.292C40.5324 9.692 40.8684 9.272 41.3724 9.032C41.8764 8.792 42.5364 8.672 43.3524 8.672C44.8164 8.672 45.5484 9.08 45.5484 9.896C45.5484 10.232 45.4764 10.616 45.3324 11.048C44.7084 12.968 44.0844 15.548 43.4604 18.788C42.8364 22.004 42.3924 25.076 42.1284 28.004C42.8484 28.076 43.6644 28.112 44.5764 28.112C48.7764 28.112 51.9084 26.84 53.9724 24.296C56.0604 21.752 57.1044 18.356 57.1044 14.108C57.1044 11.252 56.2884 9.044 54.6564 7.484C53.0244 5.924 50.7204 5.144 47.7444 5.144C45.8244 5.144 43.9164 5.444 42.0204 6.044C40.1484 6.644 38.4564 7.436 36.9444 8.42C36.6324 8.636 36.2964 8.744 35.9364 8.744C35.5284 8.744 35.2044 8.576 34.9644 8.24C34.7244 7.88 34.6044 7.448 34.6044 6.944C34.6044 6.368 34.7004 5.9 34.8924 5.54C35.0844 5.156 35.4084 4.808 35.8644 4.496C37.5204 3.368 39.4644 2.516 41.6964 1.94C43.9284 1.34 46.0764 1.04 48.1404 1.04C51.0684 1.04 53.6004 1.556 55.7364 2.588C57.8724 3.596 59.5164 5.084 60.6684 7.052C61.8204 9.02 62.3964 11.396 62.3964 14.18C62.3964 17.804 61.6764 20.972 60.2364 23.684C58.7964 26.372 56.6964 28.46 53.9364 29.948C51.1764 31.436 47.8884 32.18 44.0724 32.18ZM80.8621 23.972C81.1741 23.972 81.4141 24.116 81.5821 24.404C81.7741 24.692 81.8701 25.088 81.8701 25.592C81.8701 26.552 81.6421 27.296 81.1861 27.824C80.2981 28.904 79.0381 29.9 77.4061 30.812C75.7981 31.724 74.0701 32.18 72.2221 32.18C69.7021 32.18 67.7461 31.496 66.3541 30.128C64.9621 28.76 64.2661 26.888 64.2661 24.512C64.2661 22.856 64.6141 21.32 65.3101 19.904C66.0061 18.464 66.9661 17.324 68.1901 16.484C69.4381 15.644 70.8421 15.224 72.4021 15.224C73.7941 15.224 74.9101 15.644 75.7501 16.484C76.5901 17.3 77.0101 18.416 77.0101 19.832C77.0101 21.488 76.4101 22.916 75.2101 24.116C74.0341 25.292 72.0301 26.228 69.1981 26.924C69.7981 28.028 70.9381 28.58 72.6181 28.58C73.6981 28.58 74.9221 28.208 76.2901 27.464C77.6821 26.696 78.8821 25.7 79.8901 24.476C80.1781 24.14 80.5021 23.972 80.8621 23.972ZM71.7901 18.752C70.9021 18.752 70.1461 19.268 69.5221 20.3C68.9221 21.332 68.6221 22.58 68.6221 24.044V24.116C70.0381 23.78 71.1541 23.276 71.9701 22.604C72.7861 21.932 73.1941 21.152 73.1941 20.264C73.1941 19.808 73.0621 19.448 72.7981 19.184C72.5581 18.896 72.2221 18.752 71.7901 18.752ZM83.0747 32.18C82.0667 32.18 81.2747 31.808 80.6987 31.064C80.1227 30.296 79.7627 29.072 79.6187 27.392C79.3307 24.032 79.1867 21.092 79.1867 18.572V17.312C79.2107 16.52 79.4267 15.968 79.8347 15.656C80.2427 15.344 80.8547 15.188 81.6707 15.188C82.2947 15.188 82.7507 15.332 83.0387 15.62C83.3507 15.884 83.5067 16.34 83.5067 16.988C83.5067 19.748 83.6747 23.336 84.0107 27.752C85.0427 25.976 85.9307 24.356 86.6747 22.892C87.4427 21.404 88.2707 19.448 89.1587 17.024C89.4227 16.304 89.7707 15.824 90.2027 15.584C90.6347 15.32 91.1747 15.188 91.8227 15.188C93.1427 15.188 93.8027 15.608 93.8027 16.448C93.8027 16.736 93.7067 17.132 93.5147 17.636C91.5707 22.172 89.7347 25.832 88.0067 28.616C87.1667 29.984 86.3627 30.92 85.5947 31.424C84.8267 31.928 83.9867 32.18 83.0747 32.18Z" fill="white"/>
</svg>
