<svg width="50" height="50" viewBox="0 0 50 50" fill="none" xmlns="http://www.w3.org/2000/svg">
<path fill-rule="evenodd" clip-rule="evenodd" d="M9.66683 1.66689C9.66683 1.31327 9.52635 0.97413 9.27631 0.724081C9.02626 0.474033 8.68712 0.333557 8.3335 0.333557C7.97987 0.333557 7.64074 0.474033 7.39069 0.724081C7.14064 0.97413 7.00016 1.31327 7.00016 1.66689V3.66689H5.00016C4.64654 3.66689 4.3074 3.80737 4.05735 4.05741C3.8073 4.30746 3.66683 4.6466 3.66683 5.00022C3.66683 5.35385 3.8073 5.69298 4.05735 5.94303C4.3074 6.19308 4.64654 6.33356 5.00016 6.33356H7.00016V8.33356C7.00016 8.50865 7.03465 8.68203 7.10166 8.8438C7.16866 9.00557 7.26688 9.15255 7.39069 9.27637C7.5145 9.40018 7.66148 9.49839 7.82325 9.5654C7.98502 9.6324 8.1584 9.66689 8.3335 9.66689C8.50859 9.66689 8.68197 9.6324 8.84374 9.5654C9.00551 9.49839 9.15249 9.40018 9.27631 9.27637C9.40012 9.15255 9.49833 9.00557 9.56534 8.8438C9.63234 8.68203 9.66683 8.50865 9.66683 8.33356V6.33356H11.6668C12.0205 6.33356 12.3596 6.19308 12.6096 5.94303C12.8597 5.69298 13.0002 5.35385 13.0002 5.00022C13.0002 4.6466 12.8597 4.30746 12.6096 4.05741C12.3596 3.80737 12.0205 3.66689 11.6668 3.66689H9.66683V1.66689ZM19.6668 11.6669C19.6668 11.4918 19.6323 11.3184 19.5653 11.1566C19.4983 10.9949 19.4001 10.8479 19.2763 10.7241C19.1525 10.6003 19.0055 10.5021 18.8437 10.4351C18.682 10.368 18.5086 10.3336 18.3335 10.3336C18.1584 10.3336 17.985 10.368 17.8233 10.4351C17.6615 10.5021 17.5145 10.6003 17.3907 10.7241C17.2669 10.8479 17.1687 10.9949 17.1017 11.1566C17.0347 11.3184 17.0002 11.4918 17.0002 11.6669V13.6669H15.0002C14.8251 13.6669 14.6517 13.7014 14.4899 13.7684C14.3282 13.8354 14.1812 13.9336 14.0574 14.0574C13.9335 14.1812 13.8353 14.3282 13.7683 14.49C13.7013 14.6517 13.6668 14.8251 13.6668 15.0002C13.6668 15.1753 13.7013 15.3487 13.7683 15.5105C13.8353 15.6722 13.9335 15.8192 14.0574 15.943C14.1812 16.0668 14.3282 16.1651 14.4899 16.2321C14.6517 16.2991 14.8251 16.3336 15.0002 16.3336H17.0002V18.3336C17.0002 18.5087 17.0347 18.682 17.1017 18.8438C17.1687 19.0056 17.2669 19.1526 17.3907 19.2764C17.5145 19.4002 17.6615 19.4984 17.8233 19.5654C17.985 19.6324 18.1584 19.6669 18.3335 19.6669C18.5086 19.6669 18.682 19.6324 18.8437 19.5654C19.0055 19.4984 19.1525 19.4002 19.2763 19.2764C19.4001 19.1526 19.4983 19.0056 19.5653 18.8438C19.6323 18.682 19.6668 18.5087 19.6668 18.3336V16.3336H21.6668C22.0205 16.3336 22.3596 16.1931 22.6096 15.943C22.8597 15.693 23.0002 15.3538 23.0002 15.0002C23.0002 14.6466 22.8597 14.3075 22.6096 14.0574C22.3596 13.8074 22.0205 13.6669 21.6668 13.6669H19.6668V11.6669ZM6.3335 21.6669C6.3335 21.3133 6.19302 20.9741 5.94297 20.7241C5.69292 20.474 5.35378 20.3336 5.00016 20.3336C4.64654 20.3336 4.3074 20.474 4.05735 20.7241C3.8073 20.9741 3.66683 21.3133 3.66683 21.6669V23.6669H1.66683C1.31321 23.6669 0.974069 23.8074 0.72402 24.0574C0.473972 24.3075 0.333496 24.6466 0.333496 25.0002C0.333496 25.3538 0.473972 25.693 0.72402 25.943C0.974069 26.1931 1.31321 26.3336 1.66683 26.3336H3.66683V28.3336C3.66683 28.6872 3.8073 29.0263 4.05735 29.2764C4.3074 29.5264 4.64654 29.6669 5.00016 29.6669C5.35378 29.6669 5.69292 29.5264 5.94297 29.2764C6.19302 29.0263 6.3335 28.6872 6.3335 28.3336V26.3336H8.3335C8.68712 26.3336 9.02626 26.1931 9.27631 25.943C9.52635 25.693 9.66683 25.3538 9.66683 25.0002C9.66683 24.6466 9.52635 24.3075 9.27631 24.0574C9.02626 23.8074 8.68712 23.6669 8.3335 23.6669H6.3335V21.6669ZM28.4802 3.27356L27.4868 3.14022C26.7768 3.06022 26.3535 3.88689 26.7635 4.47356C29.3178 8.1509 30.6836 12.5228 30.6768 17.0002C30.6749 22.6283 28.5168 28.0418 24.6462 32.1275C20.7755 36.2133 15.4866 38.6608 9.86683 38.9669C9.1535 39.0069 8.75683 39.8469 9.25683 40.3569C9.48683 40.5902 9.71683 40.8202 9.95683 41.0436L10.1968 41.2636L11.0635 42.0169L11.6902 42.5102L12.0935 42.8102L12.7168 43.2469L13.3035 43.6302C13.7035 43.8836 14.1168 44.1269 14.5368 44.3536L15.4168 44.8036L16.2835 45.2036L17.2935 45.6102L18.1068 45.8969C19.3051 46.2912 20.5353 46.5811 21.7835 46.7636L22.8402 46.8969L23.7302 46.9636C26.9298 47.1503 30.1316 46.6356 33.1116 45.4556C36.0916 44.2756 38.7777 42.4587 40.9821 40.1321C43.1865 37.8055 44.856 35.0252 45.8736 31.986C46.8912 28.9467 47.2325 25.7218 46.8735 22.5369L46.7502 21.6136C46.5012 19.9984 46.0718 18.4163 45.4702 16.8969L45.0935 16.0036L44.8368 15.4502L44.5902 14.9569C44.0617 13.9295 43.4531 12.9454 42.7702 12.0136L42.2602 11.3469L41.5968 10.5469L41.0535 9.94689L40.6535 9.53356L40.1202 9.00689L39.3768 8.34022L38.3102 7.47356L37.4935 6.88356L36.5202 6.25022L35.4502 5.63022L34.3568 5.08022L33.9802 4.90689L33.1802 4.57022L32.2602 4.22356L31.4202 3.95022L30.3368 3.65022L29.4535 3.45022L28.4802 3.27356ZM34.6802 17.6669C34.6827 14.3575 34.0348 11.0798 32.7735 8.02022C37.2583 10.119 40.7257 13.9133 42.4129 18.5686C44.1001 23.2239 43.8689 28.3587 41.7702 32.8436C39.6714 37.3284 35.877 40.7958 31.2218 42.483C26.5665 44.1702 21.4316 43.939 16.9468 41.8402C21.7544 40.3254 26.0018 37.4126 29.1468 33.4736C29.457 33.9006 29.8945 34.2183 30.3966 34.3811C30.8986 34.544 31.4393 34.5435 31.9411 34.3798C32.4429 34.2162 32.8798 33.8977 33.1893 33.4702C33.4988 33.0426 33.6648 32.528 33.6635 32.0002C33.6639 31.433 33.4715 30.8825 33.1177 30.4391C32.764 29.9957 32.27 29.6858 31.7168 29.5602C31.9235 29.1736 32.1235 28.7769 32.3102 28.3769C32.8583 28.716 33.4776 28.9234 34.1195 28.9826C34.7613 29.0418 35.4082 28.9513 36.0091 28.7183C36.6101 28.4852 37.1487 28.1159 37.5828 27.6393C38.0168 27.1628 38.3344 26.5921 38.5105 25.972C38.6866 25.352 38.7165 24.6996 38.5978 24.066C38.479 23.4325 38.2149 22.8351 37.8262 22.321C37.4375 21.8068 36.9349 21.3898 36.3577 21.1028C35.7806 20.8157 35.1447 20.6665 34.5002 20.6669C34.6135 19.6836 34.6735 18.6836 34.6735 17.6669H34.6802Z" fill="white"/>
</svg>
