<svg width="181" height="186" viewBox="0 0 181 186" fill="none" xmlns="http://www.w3.org/2000/svg">
<path d="M100.804 142.468C100.804 142.468 93.9693 103.662 130.01 82.8792C165.972 62.0962 167.681 62.3392 174.827 59.9852C178.944 58.5242 183.138 61.6092 178.4 67.7792C173.662 74.0302 176.38 75.5723 166.904 78.3333C157.428 81.0933 156.03 93.1082 151.292 96.1122C146.554 99.1162 142.437 99.9282 127.99 106.422C114.863 112.349 103.678 129.073 103.678 134.918C103.678 140.763 90.8623 142.793 90.8623 142.793L100.804 142.468Z" fill="url(#paint0_linear)"/>
<path d="M102.047 137.029C102.047 137.029 92.8818 101.308 124.417 81.9862C155.952 62.6642 166.904 62.9082 173.196 60.5532C176.769 59.1732 166.982 63.8822 162.865 69.5652C158.749 75.3292 159.758 74.0302 152.379 78.2512C143.835 83.2042 140.262 87.9932 135.214 88.9682C127.912 90.4292 130.087 98.3852 117.427 104.312C106.009 109.751 104.533 124.283 104.533 129.722C104.533 135.243 93.3479 137.029 93.3479 137.029H102.047Z" fill="url(#paint1_linear)"/>
<path d="M70.3571 131.752L66.7841 128.18C65.0751 126.556 62.9781 125.338 60.7251 124.689C49.6183 121.604 14.5876 110.157 0.0627588 82.4732C-0.0932396 82.2292 0.0627606 81.9052 0.295758 81.8232H0.372753C0.450753 81.8232 0.528742 81.7423 0.528742 81.7423C5.34469 81.3363 30.2775 80.9302 63.5991 110.644C64.2201 111.131 64.7641 111.781 65.2301 112.349C66.0841 113.567 67.4831 115.677 68.1041 116.733C68.9581 118.356 67.2501 121.035 69.5801 123.39C71.91 125.744 76.959 131.671 76.959 131.671L72.842 134.837L70.3571 131.752Z" fill="url(#paint2_linear)"/>
<path d="M89.309 129.479C89.309 129.479 79.7551 40.0953 105.853 12.0053C129.854 -13.8117 130.243 9.89425 130.165 13.9533C130.165 14.3593 130.01 14.6033 129.932 14.9283C124.262 25.9693 122.32 38.7152 124.34 51.0552C126.825 63.9632 109.116 62.2582 107.562 75.0042C106.009 87.7502 99.8725 107.397 100.494 116.408C101.115 125.419 101.193 134.187 101.193 134.187L91.5615 134.512L89.309 129.479Z" fill="url(#paint3_linear)"/>
<path d="M89.3865 129.722C89.3088 129.56 89.2312 129.316 89.2312 129.073C88.6098 123.227 80.6095 39.0392 105.776 11.9242C129.621 -13.8118 130.009 9.48823 129.854 13.7102C129.776 14.1972 129.543 14.6842 129.31 15.0902C127.524 17.7692 119.679 29.4602 112.688 28.1612C93.3478 24.5892 110.436 48.8632 99.95 61.8522C91.5614 72.0812 94.3575 107.478 94.9789 116.57C95.3673 121.685 96.2217 126.718 97.4645 131.671C97.6975 132.97 96.8431 134.187 95.678 134.431C95.6003 134.431 95.5226 134.431 95.5226 134.431C95.3673 134.431 95.2119 134.512 95.0566 134.512H93.2702C92.1828 134.593 91.2507 134.025 90.7846 133.051L89.3865 129.722Z" fill="url(#paint4_linear)"/>
<path d="M79.988 134.918C79.988 134.918 78.2791 110.157 64.4532 95.0563C60.5702 90.9163 55.6763 88.0752 50.3173 86.7762C46.2004 85.8022 39.4424 82.3112 33.5395 70.7012C33.5395 70.7012 22.4326 54.2213 11.2477 49.2693C0.139833 44.2353 11.2477 43.6672 11.2477 43.6672C11.2477 43.6672 43.0934 49.9992 63.5212 69.4832C64.8422 70.7012 66.1622 71.8383 67.6382 72.8123C72.9201 76.6283 87.6001 90.8352 86.9787 132.482L79.988 134.918Z" fill="url(#paint5_linear)"/>
<path d="M52.3361 132.97C52.3361 132.97 51.8701 129.966 55.6761 130.047C59.0161 130.209 115.251 129.722 115.251 129.722C115.251 129.722 117.892 129.722 117.737 131.833C117.582 133.944 109.038 182.898 108.261 183.872C107.873 184.522 107.329 185.009 106.63 185.171C105.542 185.496 66.084 185.252 66.084 185.252C65.152 185.09 64.453 184.359 64.376 183.385C64.376 183.385 52.2591 133.538 52.3361 132.97Z" fill="url(#paint6_linear)"/>
<defs>
<linearGradient id="paint0_linear" x1="180.395" y1="101.136" x2="90.6858" y2="101.136" gradientUnits="userSpaceOnUse">
<stop stop-color="#93FD93"/>
<stop offset="0.51" stop-color="#21C2C1"/>
<stop offset="1" stop-color="#84F599"/>
</linearGradient>
<linearGradient id="paint1_linear" x1="146.782" y1="71.5232" x2="93.0801" y2="134.516" gradientUnits="userSpaceOnUse">
<stop stop-color="#93FD93"/>
<stop offset="0.51" stop-color="#21C2C1"/>
<stop offset="1" stop-color="#84F599"/>
</linearGradient>
<linearGradient id="paint2_linear" x1="88.0876" y1="145.384" x2="15.7171" y2="91.8099" gradientUnits="userSpaceOnUse">
<stop stop-color="#93FD93"/>
<stop offset="0.51" stop-color="#21C2C1"/>
<stop offset="1" stop-color="#84F599"/>
</linearGradient>
<linearGradient id="paint3_linear" x1="70.4712" y1="116.602" x2="133.969" y2="39.6939" gradientUnits="userSpaceOnUse">
<stop stop-color="#93FD93"/>
<stop offset="0.51" stop-color="#21C2C1"/>
<stop offset="1" stop-color="#84F599"/>
</linearGradient>
<linearGradient id="paint4_linear" x1="129.897" y1="67.2502" x2="87.5491" y2="67.2502" gradientUnits="userSpaceOnUse">
<stop stop-color="#93FD93"/>
<stop offset="0.51" stop-color="#21C2C1"/>
<stop offset="1" stop-color="#84F599"/>
</linearGradient>
<linearGradient id="paint5_linear" x1="91.1791" y1="139.566" x2="42.5187" y2="72.2377" gradientUnits="userSpaceOnUse">
<stop stop-color="#93FD93"/>
<stop offset="0.51" stop-color="#21C2C1"/>
<stop offset="1" stop-color="#84F599"/>
</linearGradient>
<linearGradient id="paint6_linear" x1="117.625" y1="157.487" x2="52.2641" y2="157.487" gradientUnits="userSpaceOnUse">
<stop stop-color="#E5A4ED"/>
<stop offset="1" stop-color="#7A5BF5"/>
</linearGradient>
</defs>
</svg>
