<svg width="50" height="50" viewBox="0 0 50 50" fill="none" xmlns="http://www.w3.org/2000/svg">
<path d="M8.33325 12.5C8.33325 11.9475 8.55275 11.4176 8.94345 11.0269C9.33415 10.6362 9.86405 10.4167 10.4166 10.4167H39.5832C40.1358 10.4167 40.6657 10.6362 41.0564 11.0269C41.4471 11.4176 41.6666 11.9475 41.6666 12.5C41.6666 13.0525 41.4471 13.5824 41.0564 13.9731C40.6657 14.3638 40.1358 14.5833 39.5832 14.5833H10.4166C9.86405 14.5833 9.33415 14.3638 8.94345 13.9731C8.55275 13.5824 8.33325 13.0525 8.33325 12.5Z" fill="white"/>
<path d="M8.33325 37.5C8.33325 36.9475 8.55275 36.4176 8.94345 36.0269C9.33415 35.6361 9.86405 35.4167 10.4166 35.4167H39.5832C40.1358 35.4167 40.6657 35.6361 41.0564 36.0269C41.4471 36.4176 41.6666 36.9475 41.6666 37.5C41.6666 38.0525 41.4471 38.5824 41.0564 38.9732C40.6657 39.3639 40.1358 39.5833 39.5832 39.5833H10.4166C9.86405 39.5833 9.33415 39.3639 8.94345 38.9732C8.55275 38.5824 8.33325 38.0525 8.33325 37.5Z" fill="white"/>
<path d="M22.9166 22.9167C22.3641 22.9167 21.8341 23.1362 21.4434 23.5269C21.0527 23.9176 20.8333 24.4475 20.8333 25C20.8333 25.5525 21.0527 26.0825 21.4434 26.4732C21.8341 26.8639 22.3641 27.0833 22.9166 27.0833H39.5833C40.1358 27.0833 40.6657 26.8639 41.0564 26.4732C41.4471 26.0825 41.6666 25.5525 41.6666 25C41.6666 24.4475 41.4471 23.9176 41.0564 23.5269C40.6657 23.1362 40.1358 22.9167 39.5833 22.9167H22.9166Z" fill="white"/>
</svg>
