<svg width="134" height="419" viewBox="0 0 134 419" fill="none" xmlns="http://www.w3.org/2000/svg">
<path d="M86.6262 401.548C84.9062 393.959 84.3332 384.24 83.1862 384.041H81.9133L69.7482 384.174C69.7482 384.174 67.2012 396.289 65.9272 401.348C65.7992 401.681 65.6082 402.546 65.3542 403.146C65.0992 404.011 65.0992 404.943 65.0992 405.808C65.3542 410.401 67.0733 414.329 70.9583 416.392C75.3533 418.656 78.6652 420.852 83.1232 416.392C87.6452 411.866 88.3452 409.137 86.6262 401.548Z" fill="#4B44BE"/>
<path d="M48.0942 385.239L32.6813 386.104C32.6813 386.104 26.5672 397.154 17.6512 399.817C9.24424 402.347 -4.64077 408.471 1.53723 411.932C6.12323 414.728 35.8023 412.199 42.9993 412.798C48.4123 413.264 49.8773 409.802 49.3043 402.214C48.9223 396.489 48.0942 385.239 48.0942 385.239Z" fill="#4B44BE"/>
<path d="M29.6242 184.139C29.6242 184.139 19.3062 273.007 18.6062 278.798C17.9052 284.589 22.1722 314.212 22.1722 319.87C22.1722 325.528 32.2992 386.171 32.2992 386.171L48.4122 385.439C48.4122 385.439 45.1642 296.172 45.5462 291.845C45.8652 287.518 63.5072 235.729 63.5072 235.729C63.5072 235.729 64.7803 249.442 64.7803 253.769C64.7803 258.096 69.6212 384.374 69.6212 384.374H83.6322L103.503 198.385L103.185 194.79L29.6242 184.139Z" fill="url(#paint0_linear)"/>
<path d="M76.9453 12.4621C76.9453 12.4621 61.5323 18.7201 58.0933 20.1171C54.6543 21.5821 52.6793 25.9751 52.6793 25.9751C52.6793 25.9751 50.9603 24.9101 50.9603 27.9061C50.9603 30.9011 52.3613 37.7581 53.5073 39.5551C55.3543 42.5511 56.9462 45.5461 58.4752 48.6751C59.8762 51.8031 59.3672 58.2611 57.9022 59.2591C56.4372 60.1911 30.4523 84.7541 30.4523 84.7541L8.79822 154.317L11.6642 176.284L16.0582 197.919C16.0582 197.919 15.1673 199.45 16.9503 201.314C18.7973 203.111 26.6312 216.558 26.6312 216.558L29.3063 196.72L20.4532 167.298L17.3322 142.535L38.0312 98.3341L109.745 111.647L117.578 159.842L103.057 200.914L100.51 220.951L112.674 209.768C113.375 209.169 114.712 206.04 115.413 204.376L122.673 183.008L128.087 148.859C128.087 148.859 82.8042 63.5861 80.5112 58.5271C79.4922 56.2631 80.6392 50.7381 81.2122 47.9431C81.7852 45.4131 82.9322 42.1511 84.0782 41.2191C85.7982 39.2891 86.6262 36.5601 87.0712 34.0301C87.0712 32.2331 87.7722 25.2431 86.0522 26.9741C85.7342 27.4401 84.4603 25.3101 83.8873 22.5141C82.8043 18.4531 80.0663 15.0581 76.9453 12.4621Z" fill="url(#paint1_linear)"/>
<path d="M71.0853 82.0251C69.9393 83.0901 68.2193 82.9571 67.2003 81.8921C66.3723 80.5601 65.6082 79.2291 65.0352 77.8981C63.8892 75.5011 55.0363 61.9221 55.0363 61.9221C55.0363 61.9221 34.0193 67.5801 30.6433 69.8431C27.2043 72.2401 24.0833 75.5011 22.9373 79.6951C21.7903 83.8891 5.55024 133.282 4.78524 136.277C3.95724 139.273 -0.181738 144.066 1.79226 156.248C3.76626 168.429 14.6572 199.516 15.8032 199.849C16.9502 200.182 28.5413 194.191 28.5413 194.191C28.5413 194.191 19.3703 155.515 19.3703 151.654C19.3703 147.793 27.6503 136.876 30.9613 129.421C34.2733 121.965 36.6933 115.508 37.8403 112.247C38.9863 108.985 27.9683 176.551 27.9683 176.551C27.9683 176.551 27.7133 188.799 29.9423 189.997C31.9803 191.062 56.6923 200.914 62.4873 203.244C63.0613 203.51 63.7613 203.111 64.0803 202.512L67.7743 191.595C67.7743 191.462 67.9013 191.328 68.0283 191.462C68.1563 191.462 68.1563 191.595 68.1563 191.595L71.5952 203.51C71.7222 204.109 72.4232 204.442 72.9962 204.376L103.439 197.519C103.439 197.519 102.994 138.807 103.567 128.955C104.013 119.369 102.866 113.911 104.586 116.573C106.433 119.436 114.139 145.863 114.139 150.323C114.139 154.783 105.541 193.791 105.541 193.791L116.941 200.382C116.941 200.382 132.354 157.512 133.118 151.854C133.946 146.196 134.265 143.2 131.717 137.542C129.17 131.884 115.158 80.6271 115.158 80.6271C115.158 80.6271 113.757 74.3701 103.439 71.1081C93.1223 67.8461 85.4153 63.0531 83.5683 63.1861C81.7223 63.3201 75.9893 74.5691 73.4423 77.9641C72.2323 79.2291 72.4873 79.8281 71.0853 82.0251Z" fill="url(#paint2_linear)"/>
<path d="M76.8182 12.5291C76.8182 12.5291 59.4302 19.1191 55.9282 21.9151C53.2532 23.9781 52.6793 25.9091 52.6793 25.9091C52.6793 25.9091 50.8323 25.0431 50.9603 27.8391C51.0873 30.6351 48.9222 23.5121 48.2852 21.2491C47.8392 18.9861 47.7122 12.5951 52.4252 7.9361C57.1382 3.2761 62.2962 -0.251896 66.6912 0.0141039C71.0862 0.280104 74.6523 1.54509 78.0913 5.07309C81.5303 8.53509 82.3583 8.3351 83.0593 8.6681C83.7603 9.0011 87.3262 12.9951 87.7722 17.3221C88.2182 21.6481 86.9442 28.0391 86.9442 28.0391C86.9442 28.0391 86.1163 27.1071 85.2243 27.7731C84.3333 28.4381 84.0783 23.7121 81.0853 17.7881C78.9193 13.3941 76.8182 12.5291 76.8182 12.5291Z" fill="url(#paint3_linear)"/>
<path opacity="0.07" d="M65.7993 226.609C63.8253 232.6 56.1192 244.383 51.0872 251.505C46.0562 258.561 30.5162 273.473 31.5352 291.645C32.5542 309.818 42.9993 356.549 42.9993 360.742C42.9993 364.936 39.1142 384.773 36.1202 390.897C33.1272 397.021 31.7263 407.938 33.2543 407.938C35.9933 407.805 38.8593 407.472 41.6613 406.74C44.2093 406.141 46.6932 405.542 49.1132 404.677C50.1322 404.211 50.3873 400.683 50.3873 400.683C50.5143 399.218 50.2592 397.687 49.9412 396.356C49.2402 394.092 48.6673 391.763 48.3483 389.499C47.7753 372.458 46.3103 332.917 46.6293 330.121C47.2023 324.929 43.1902 298.901 46.8842 286.054C50.5142 273.273 65.7993 226.609 65.7993 226.609Z" fill="black"/>
<path opacity="0.07" d="M28.5413 194.191L25.8663 215.559C25.8663 215.559 28.5413 220.019 29.3063 216.291C30.1343 212.563 35.6112 205.574 32.1722 200.581C28.7322 195.589 28.5413 194.191 28.5413 194.191Z" fill="black"/>
<path opacity="0.07" d="M103.248 200.115L102.357 210.3L101.21 220.152C101.21 220.152 97.3252 223.148 97.3892 219.287C97.5162 215.426 90.8293 209.701 95.9243 205.84C101.019 201.979 103.248 200.115 103.248 200.115Z" fill="black"/>
<path opacity="0.07" d="M54.9083 62.0551C55.6093 61.9221 51.5973 62.9871 55.1633 61.7891C61.2773 59.7251 58.7302 47.7431 58.7302 47.7431C58.7302 47.7431 59.3032 52.2031 65.0352 54.0001C70.7672 55.7981 72.2952 54.4661 63.6342 58.6601C55.0362 62.8541 59.4943 64.3181 60.0673 69.8431" fill="black"/>
<path opacity="0.07" d="M37.6492 116.374L27.9683 177.616C27.9683 177.616 28.0953 188.533 29.9423 190.13C31.7893 191.661 37.9672 192.793 39.3682 193.858C40.7702 194.923 55.6733 200.115 51.7883 191.328C50.8963 189.398 30.7702 177.616 39.7512 165.234C48.7312 152.853 47.0752 135.811 42.8712 123.896C40.3242 116.906 39.0503 109.451 39.4323 102.062L37.6492 116.374Z" fill="black"/>
<defs>
<linearGradient id="paint0_linear" x1="18.4932" y1="285.142" x2="103.393" y2="285.142" gradientUnits="userSpaceOnUse">
<stop stop-color="#4B45BD"/>
<stop offset="1" stop-color="#58CAEA"/>
</linearGradient>
<linearGradient id="paint1_linear" x1="8.79922" y1="116.716" x2="128.105" y2="116.716" gradientUnits="userSpaceOnUse">
<stop stop-color="#F87B58"/>
<stop offset="0.41" stop-color="#F89453"/>
<stop offset="0.71" stop-color="#F8C548"/>
<stop offset="1" stop-color="#F89C51"/>
</linearGradient>
<linearGradient id="paint2_linear" x1="1.26926" y1="133.125" x2="133.837" y2="133.125" gradientUnits="userSpaceOnUse">
<stop stop-color="#E5A4ED"/>
<stop offset="1" stop-color="#7A5BF5"/>
</linearGradient>
<linearGradient id="paint3_linear" x1="48.1282" y1="14.1911" x2="87.9912" y2="14.1911" gradientUnits="userSpaceOnUse">
<stop stop-color="#4B45BD"/>
<stop offset="1" stop-color="#7A5BF5"/>
</linearGradient>
</defs>
</svg>
