<svg width="50" height="50" viewBox="0 0 50 50" fill="none" xmlns="http://www.w3.org/2000/svg">
<path d="M25 40.625C25.8288 40.625 26.6237 40.9542 27.2097 41.5403C27.7958 42.1263 28.125 42.9212 28.125 43.75V46.875C28.125 47.7038 27.7958 48.4987 27.2097 49.0847C26.6237 49.6708 25.8288 50 25 50C24.1712 50 23.3763 49.6708 22.7903 49.0847C22.2042 48.4987 21.875 47.7038 21.875 46.875V43.75C21.875 42.9212 22.2042 42.1263 22.7903 41.5403C23.3763 40.9542 24.1712 40.625 25 40.625ZM25 9.375C24.1712 9.375 23.3763 9.04576 22.7903 8.45971C22.2042 7.87366 21.875 7.0788 21.875 6.25V3.125C21.875 2.2962 22.2042 1.50134 22.7903 0.915291C23.3763 0.32924 24.1712 0 25 0C25.8288 0 26.6237 0.32924 27.2097 0.915291C27.7958 1.50134 28.125 2.2962 28.125 3.125V6.25C28.125 7.0788 27.7958 7.87366 27.2097 8.45971C26.6237 9.04576 25.8288 9.375 25 9.375ZM46.875 21.875C47.7038 21.875 48.4987 22.2042 49.0847 22.7903C49.6708 23.3763 50 24.1712 50 25C50 25.8288 49.6708 26.6237 49.0847 27.2097C48.4987 27.7958 47.7038 28.125 46.875 28.125H43.75C42.9212 28.125 42.1263 27.7958 41.5403 27.2097C40.9542 26.6237 40.625 25.8288 40.625 25C40.625 24.1712 40.9542 23.3763 41.5403 22.7903C42.1263 22.2042 42.9212 21.875 43.75 21.875H46.875ZM9.375 25C9.375 25.8288 9.04576 26.6237 8.45971 27.2097C7.87366 27.7958 7.0788 28.125 6.25 28.125H3.125C2.2962 28.125 1.50134 27.7958 0.915291 27.2097C0.32924 26.6237 0 25.8288 0 25C0 24.1712 0.32924 23.3763 0.915291 22.7903C1.50134 22.2042 2.2962 21.875 3.125 21.875H6.25C7.0788 21.875 7.87366 22.2042 8.45971 22.7903C9.04576 23.3763 9.375 24.1712 9.375 25ZM40.4688 36.05L42.6781 38.2594C43.2474 38.8488 43.5624 39.6381 43.5552 40.4575C43.5481 41.2769 43.2195 42.0607 42.6401 42.6401C42.0607 43.2195 41.2769 43.5481 40.4575 43.5552C39.6381 43.5624 38.8488 43.2474 38.2594 42.6781L36.05 40.4688C35.4808 39.8794 35.1658 39.09 35.1729 38.2706C35.18 37.4513 35.5087 36.6675 36.0881 36.0881C36.6675 35.5087 37.4513 35.18 38.2706 35.1729C39.09 35.1658 39.8794 35.4808 40.4688 36.05ZM9.53125 13.95L7.32187 11.7406C7.03174 11.4505 6.80158 11.106 6.64456 10.727C6.48754 10.3479 6.40672 9.94157 6.40672 9.53125C6.40672 9.12093 6.48754 8.71463 6.64456 8.33554C6.80158 7.95646 7.03174 7.61201 7.32187 7.32187C7.61201 7.03174 7.95646 6.80158 8.33554 6.64456C8.71463 6.48754 9.12093 6.40672 9.53125 6.40672C9.94157 6.40672 10.3479 6.48754 10.727 6.64456C11.106 6.80158 11.4505 7.03174 11.7406 7.32187L13.95 9.53125C14.2401 9.82139 14.4703 10.1658 14.6273 10.5449C14.7843 10.924 14.8652 11.3303 14.8652 11.7406C14.8652 12.1509 14.7843 12.5572 14.6273 12.9363C14.4703 13.3154 14.2401 13.6599 13.95 13.95C13.6599 14.2401 13.3154 14.4703 12.9363 14.6273C12.5572 14.7843 12.1509 14.8652 11.7406 14.8652C11.3303 14.8652 10.924 14.7843 10.5449 14.6273C10.1658 14.4703 9.82139 14.2401 9.53125 13.95ZM40.4688 13.95C39.8828 14.536 39.0881 14.8652 38.2594 14.8652C37.4307 14.8652 36.636 14.536 36.05 13.95C35.464 13.364 35.1348 12.5693 35.1348 11.7406C35.1348 10.9119 35.464 10.1172 36.05 9.53125L38.2594 7.32187C38.8453 6.73591 39.6401 6.40672 40.4688 6.40672C41.2974 6.40672 42.0922 6.73591 42.6781 7.32187C43.2641 7.90784 43.5933 8.70257 43.5933 9.53125C43.5933 10.3599 43.2641 11.1547 42.6781 11.7406L40.4688 13.95ZM9.53125 36.05C10.1206 35.4808 10.91 35.1658 11.7294 35.1729C12.5487 35.18 13.3325 35.5087 13.9119 36.0881C14.4913 36.6675 14.82 37.4513 14.8271 38.2706C14.8342 39.09 14.5192 39.8794 13.95 40.4688L11.7406 42.6781C11.1512 43.2474 10.3619 43.5624 9.5425 43.5552C8.72313 43.5481 7.93934 43.2195 7.35994 42.6401C6.78054 42.0607 6.45189 41.2769 6.44477 40.4575C6.43765 39.6381 6.75263 38.8488 7.32187 38.2594L9.53125 36.05Z" fill="#F8C548"/>
<path d="M25 12.5C21.6848 12.5 18.5054 13.817 16.1612 16.1612C13.817 18.5054 12.5 21.6848 12.5 25C12.5 28.3152 13.817 31.4946 16.1612 33.8388C18.5054 36.183 21.6848 37.5 25 37.5C28.3152 37.5 31.4946 36.183 33.8388 33.8388C36.183 31.4946 37.5 28.3152 37.5 25C37.5 21.6848 36.183 18.5054 33.8388 16.1612C31.4946 13.817 28.3152 12.5 25 12.5ZM25 32.8125C22.928 32.8125 20.9409 31.9894 19.4757 30.5243C18.0106 29.0591 17.1875 27.072 17.1875 25C17.1875 22.928 18.0106 20.9409 19.4757 19.4757C20.9409 18.0106 22.928 17.1875 25 17.1875C27.072 17.1875 29.0591 18.0106 30.5243 19.4757C31.9894 20.9409 32.8125 22.928 32.8125 25C32.8125 27.072 31.9894 29.0591 30.5243 30.5243C29.0591 31.9894 27.072 32.8125 25 32.8125Z" fill="#F8C548"/>
</svg>
