<svg id="homearrow" xmlns="http://www.w3.org/2000/svg" xmlns:xlink="http://www.w3.org/1999/xlink" viewBox="0 0 50 50" shape-rendering="geometricPrecision" text-rendering="geometricPrecision" width="50" height="50"><style><![CDATA[#homearrow-path1_to {animation: homearrow-path1_to__to 1500ms linear infinite normal forwards}@keyframes homearrow-path1_to__to { 0% {transform: translate(24.999906px,-37.497259px)} 100% {transform: translate(24.999906px,62.497952px)} }#homearrow-path2_to {animation: homearrow-path2_to__to 1500ms linear infinite normal forwards}@keyframes homearrow-path2_to__to { 0% {transform: translate(24.999906px,-12.499653px)} 100% {transform: translate(24.999906px,87.495558px)} }]]></style><defs><linearGradient id="homearrow-path1-fill" x1="25" y1="0" x2="25" y2="24.997700" spreadMethod="pad" gradientUnits="userSpaceOnUse"><stop id="homearrow-path1-fill-0" offset="0%" stop-color="rgb(77,84,194)"/><stop id="homearrow-path1-fill-1" offset="100%" stop-color="rgb(88,193,231)"/></linearGradient><linearGradient id="homearrow-path2-fill" x1="25" y1="0" x2="25" y2="24.997700" spreadMethod="pad" gradientUnits="userSpaceOnUse"><stop id="homearrow-path2-fill-0" offset="0%" stop-color="rgb(77,84,194)"/><stop id="homearrow-path2-fill-1" offset="100%" stop-color="rgb(88,193,231)"/></linearGradient></defs><g id="homearrow-path1_to" transform="translate(24.999906,-37.497259)"><path id="homearrow-path1" d="M22.710700,24.185200C23.349500,24.710600,24.150800,24.997700,24.977700,24.997700C25.804700,24.997700,26.606000,24.710600,27.244800,24.185200L48.665700,6.933670C49.032500,6.638920,49.337400,6.274560,49.562900,5.861530C49.788500,5.448510,49.930200,4.994960,49.980000,4.526960C50.029700,4.058960,49.986600,3.585730,49.852900,3.134480C49.719300,2.683230,49.497800,2.262850,49.201300,1.897500C48.906600,1.530590,48.542400,1.225540,48.129600,0.999900C47.716800,0.774259,47.263400,0.632470,46.795600,0.582683C46.327800,0.532896,45.854800,0.576092,45.403800,0.709788C44.952700,0.843485,44.532500,1.065050,44.167300,1.361740L24.995600,16.827400L5.859530,0.825975C5.130440,0.219712,4.190490,-0.071964,3.246450,0.015114C2.302400,0.102192,1.431600,0.560892,0.825607,1.290300C0.219614,2.019710,-0.071932,2.960090,0.015107,3.904550C0.102147,4.849020,0.560642,5.720210,1.289730,6.326470L22.710700,24.185200Z" transform="translate(-25,-12.498047)" fill="url(#homearrow-path1-fill)" stroke="none" stroke-width="1"/></g><g id="homearrow-path2_to" transform="translate(24.999906,-12.499653)"><path id="homearrow-path2" d="M22.710700,24.185200C23.349500,24.710600,24.150800,24.997700,24.977700,24.997700C25.804700,24.997700,26.606000,24.710600,27.244800,24.185200L48.665700,6.933670C49.032500,6.638920,49.337400,6.274560,49.562900,5.861530C49.788500,5.448510,49.930200,4.994960,49.980000,4.526960C50.029700,4.058960,49.986600,3.585730,49.852900,3.134480C49.719300,2.683230,49.497800,2.262850,49.201300,1.897500C48.906600,1.530590,48.542400,1.225540,48.129600,0.999900C47.716800,0.774259,47.263400,0.632470,46.795600,0.582683C46.327800,0.532896,45.854800,0.576092,45.403800,0.709788C44.952700,0.843485,44.532500,1.065050,44.167300,1.361740L24.995600,16.827400L5.859530,0.825975C5.130440,0.219712,4.190490,-0.071964,3.246450,0.015114C2.302400,0.102192,1.431600,0.560892,0.825607,1.290300C0.219614,2.019710,-0.071932,2.960090,0.015107,3.904550C0.102147,4.849020,0.560642,5.720210,1.289730,6.326470L22.710700,24.185200Z" transform="translate(-25,-12.498047)" fill="url(#homearrow-path2-fill)" stroke="none" stroke-width="1"/></g></svg>