<svg width="126" height="43" viewBox="0 0 126 43" fill="none" xmlns="http://www.w3.org/2000/svg">
<path d="M36.472 21.264C37.208 21.264 37.736 21.424 38.056 21.744C38.408 22.064 38.584 22.48 38.584 22.992C38.584 23.824 38.328 24.56 37.816 25.2C37.336 25.84 36.568 26.176 35.512 26.208C32.952 26.272 30.68 26.08 28.696 25.632C26.424 30.4 23.672 34.368 20.44 37.536C17.24 40.672 14.024 42.24 10.792 42.24C7.464 42.24 4.984 40.304 3.352 36.432C1.72 32.56 0.904 27.328 0.904 20.736C0.904 15.104 1.304 10.048 2.104 5.568C2.392 3.904 2.792 2.784 3.304 2.208C3.848 1.6 4.76 1.296 6.04 1.296C8.152 1.296 9.208 2.208 9.208 4.032C9.208 4.224 9.176 4.576 9.112 5.088C8.152 10.848 7.672 16.064 7.672 20.736C7.672 25.632 8.072 29.36 8.872 31.92C9.704 34.448 10.936 35.712 12.568 35.712C14.232 35.712 16.04 34.56 17.992 32.256C19.944 29.952 21.736 27.056 23.368 23.568C21.416 22.352 19.944 20.784 18.952 18.864C17.96 16.912 17.464 14.672 17.464 12.144C17.464 9.616 17.848 7.488 18.616 5.76C19.416 4 20.488 2.688 21.832 1.824C23.208 0.959999 24.728 0.527999 26.392 0.527999C28.44 0.527999 30.056 1.264 31.24 2.736C32.456 4.208 33.064 6.224 33.064 8.784C33.064 12.464 32.264 16.48 30.664 20.832C32.36 21.12 34.296 21.264 36.472 21.264ZM22.312 11.808C22.312 14.944 23.32 17.264 25.336 18.768C26.584 15.184 27.208 12.224 27.208 9.888C27.208 8.544 27.032 7.568 26.68 6.96C26.328 6.32 25.848 6 25.24 6C24.376 6 23.672 6.512 23.128 7.536C22.584 8.528 22.312 9.952 22.312 11.808ZM59.0965 42.24C57.2405 42.24 55.1445 42.08 52.8085 41.76C51.5285 41.6 50.6485 41.264 50.1685 40.752C49.6885 40.24 49.4805 39.408 49.5445 38.256C49.7685 35.088 50.2965 31.184 51.1285 26.544C51.9605 21.872 52.9685 17.376 54.1525 13.056C54.3765 12.256 54.8245 11.696 55.4965 11.376C56.1685 11.056 57.0485 10.896 58.1365 10.896C60.0885 10.896 61.0645 11.44 61.0645 12.528C61.0645 12.976 60.9685 13.488 60.7765 14.064C59.9445 16.624 59.1125 20.064 58.2805 24.384C57.4485 28.672 56.8565 32.768 56.5045 36.672C57.4645 36.768 58.5525 36.816 59.7685 36.816C65.3685 36.816 69.5445 35.12 72.2965 31.728C75.0805 28.336 76.4725 23.808 76.4725 18.144C76.4725 14.336 75.3845 11.392 73.2085 9.312C71.0325 7.232 67.9605 6.192 63.9925 6.192C61.4325 6.192 58.8885 6.592 56.3605 7.392C53.8645 8.192 51.6085 9.248 49.5925 10.56C49.1765 10.848 48.7285 10.992 48.2485 10.992C47.7045 10.992 47.2725 10.768 46.9525 10.32C46.6325 9.84 46.4725 9.264 46.4725 8.592C46.4725 7.824 46.6005 7.2 46.8565 6.72C47.1125 6.208 47.5445 5.744 48.1525 5.328C50.3605 3.824 52.9525 2.688 55.9285 1.92C58.9045 1.12 61.7685 0.719999 64.5205 0.719999C68.4245 0.719999 71.8005 1.408 74.6485 2.784C77.4965 4.128 79.6885 6.112 81.2245 8.736C82.7605 11.36 83.5285 14.528 83.5285 18.24C83.5285 23.072 82.5685 27.296 80.6485 30.912C78.7285 34.496 75.9285 37.28 72.2485 39.264C68.5685 41.248 64.1845 42.24 59.0965 42.24ZM108.15 31.296C108.566 31.296 108.886 31.488 109.109 31.872C109.366 32.256 109.494 32.784 109.494 33.456C109.494 34.736 109.19 35.728 108.582 36.432C107.398 37.872 105.718 39.2 103.542 40.416C101.398 41.632 99.0935 42.24 96.6295 42.24C93.2695 42.24 90.6615 41.328 88.8055 39.504C86.9495 37.68 86.0215 35.184 86.0215 32.016C86.0215 29.808 86.4855 27.76 87.4135 25.872C88.3415 23.952 89.6215 22.432 91.2535 21.312C92.9175 20.192 94.7895 19.632 96.8695 19.632C98.7255 19.632 100.214 20.192 101.334 21.312C102.454 22.4 103.014 23.888 103.014 25.776C103.014 27.984 102.214 29.888 100.614 31.488C99.0455 33.056 96.3735 34.304 92.5975 35.232C93.3975 36.704 94.9175 37.44 97.1575 37.44C98.5975 37.44 100.23 36.944 102.054 35.952C103.91 34.928 105.51 33.6 106.854 31.968C107.238 31.52 107.67 31.296 108.15 31.296ZM96.0535 24.336C94.8695 24.336 93.8615 25.024 93.0295 26.4C92.2295 27.776 91.8295 29.44 91.8295 31.392V31.488C93.7175 31.04 95.2055 30.368 96.2935 29.472C97.3815 28.576 97.9255 27.536 97.9255 26.352C97.9255 25.744 97.7495 25.264 97.3975 24.912C97.0775 24.528 96.6295 24.336 96.0535 24.336ZM111.1 42.24C109.756 42.24 108.7 41.744 107.932 40.752C107.164 39.728 106.684 38.096 106.492 35.856C106.108 31.376 105.916 27.456 105.916 24.096V22.416C105.948 21.36 106.236 20.624 106.78 20.208C107.324 19.792 108.14 19.584 109.228 19.584C110.06 19.584 110.668 19.776 111.052 20.16C111.468 20.512 111.676 21.12 111.676 21.984C111.676 25.664 111.9 30.448 112.348 36.336C113.724 33.968 114.908 31.808 115.9 29.856C116.924 27.872 118.028 25.264 119.212 22.032C119.564 21.072 120.028 20.432 120.604 20.112C121.18 19.76 121.9 19.584 122.764 19.584C124.524 19.584 125.404 20.144 125.404 21.264C125.404 21.648 125.276 22.176 125.02 22.848C122.428 28.896 119.98 33.776 117.676 37.488C116.556 39.312 115.484 40.56 114.46 41.232C113.436 41.904 112.316 42.24 111.1 42.24Z" fill="white"/>
</svg>
