<svg width="955" height="690" viewBox="0 0 955 690" fill="none" xmlns="http://www.w3.org/2000/svg">
<g clip-path="url(#clip0)">
<path d="M31.4547 310.21C17.3957 283.175 13.3567 251.595 20.2696 221.719C39.9211 137.044 95.5356 -11.6042 242.728 9.42251C447.01 38.6489 506.43 45.9555 590.241 18.5152C674.051 -8.92514 818.99 -8.84396 864.352 53.1809C891.848 90.7692 984.824 259.388 925.481 317.841C866.138 376.294 954.22 491.9 956.939 553.276C959.657 614.651 874.915 622.607 768.347 624.474C661.778 626.341 42.7174 605.071 42.7174 605.071C42.7174 605.071 -36.6653 462.024 26.2505 410.959C65.1651 379.298 47.6885 341.466 31.4547 310.21Z" fill="#5CB5B5"/>
<path d="M91.3444 537.123C77.7515 536.635 26.7198 543.942 23.6905 546.702C22.9138 547.433 11.7287 582.18 60.8963 626.993C139.502 698.76 350.93 701.196 419.439 673.918C518.861 634.3 627.838 708.584 853.636 680.169C925.795 671.077 974.03 555.551 941.252 540.532C921.6 531.602 898.065 555.308 878.336 544.916C855.578 532.901 809.517 525.432 781.011 534.606C779.845 534.931 779.146 536.23 779.457 537.447C779.768 538.584 780.855 539.315 782.02 539.071L767.029 544.104C750.329 557.094 754.058 539.802 714.91 537.61L599.487 534.606C558.242 535.905 399.399 543.211 337.26 540.613H303.083C280.247 537.61 221.137 536.23 218.963 536.148L91.3444 537.123Z" fill="#5CB5B5"/>
<path d="M306.614 612.326L303.507 442.651H319.818L319.041 612.326H306.614Z" fill="#E9EDFA"/>
<path d="M661.583 443.463H679.448L673.234 613.138L661.583 613.95V443.463Z" fill="#E9EDFA"/>
<path d="M291.079 413.425L291.856 441.028L687.216 443.463L687.682 412.613L291.079 413.425Z" fill="#E9EDFA"/>
<path d="M267 398L711.294 399.624V415.049L267.777 414.237L267 398Z" fill="#BAC6F2"/>
<path d="M841.5 361H806.548C806.548 361 795.673 362.624 794.897 370.742C794.12 378.861 795.13 484.481 795.13 484.481L724.991 483.588C724.991 483.588 718 486.024 718 494.142C718 502.261 723.437 505.508 723.437 505.508L830.005 505.021L841.5 361Z" fill="#BAC6F2"/>
<path d="M841.5 361C841.5 361 851.598 362.624 852.375 378.861C853.151 395.097 852.375 504.696 852.375 504.696L745.885 505.508C744.331 505.508 742.855 504.859 741.846 503.641C740.292 501.855 738.195 499.094 738.195 496.578C738.195 492.194 739.748 485.212 748.293 485.212C756.837 485.212 829.073 484.4 829.073 484.4L830.626 370.742C830.626 370.823 830.626 362.624 841.5 361Z" fill="#B1C1F2"/>
<path d="M796.916 505.264C796.916 505.264 798.78 514.438 792.566 514.438H782.469C781.692 514.438 778.352 509.567 780.449 505.508C782.546 501.449 796.916 505.264 796.916 505.264Z" fill="#BAC6F2"/>
<path d="M792.566 514.519L791.79 606.177H784.799L784.411 513.951L792.566 514.519Z" fill="#E9EDFA"/>
<path d="M821.305 604.553L754.506 605.365V611.859L821.305 611.048V604.553Z" fill="#E9EDFA"/>
<path d="M370.223 147L370.767 302.711L785.157 302.062V148.218L370.223 147Z" fill="white"/>
<path d="M444.324 195.711V214.87L614.041 214.058V195.711H444.324Z" fill="url(#paint0_linear)"/>
<path d="M444.324 249.049V268.208L614.041 267.396V249.049H444.324Z" fill="url(#paint1_linear)"/>
<path d="M415.424 219.899C422.327 219.899 427.924 214.302 427.924 207.399C427.924 200.496 422.327 194.899 415.424 194.899C408.52 194.899 402.924 200.496 402.924 207.399C402.924 214.302 408.52 219.899 415.424 219.899Z" fill="#BAC5F4"/>
<path d="M415.424 269.665C422.327 269.665 427.924 264.068 427.924 257.165C427.924 250.262 422.327 244.665 415.424 244.665C408.52 244.665 402.924 250.262 402.924 257.165C402.924 264.068 408.52 269.665 415.424 269.665Z" fill="#BAC5F4"/>
<path d="M761.155 216.656H660.412V268.046H761.155V216.656Z" fill="#E9EDFA"/>
<path d="M658.781 265.61C658.781 265.61 666.626 247.668 674.083 249.617C681.54 251.565 683.404 259.765 688.996 256.274C694.589 252.783 698.24 238.657 703.677 236.384C711.444 233.218 714.007 236.709 724.493 242.96C734.979 249.211 739.407 247.831 743.679 243.203C747.64 238.982 754.941 227.535 763.019 222.42" stroke="#C1258B" stroke-width="0.679301" stroke-linecap="round" stroke-linejoin="round"/>
<path d="M337.911 149.03H188V298.003H337.911V149.03Z" fill="white"/>
<path d="M261.013 279.736C282.42 279.736 299.773 261.599 299.773 239.225C299.773 216.852 282.42 198.714 261.013 198.714C239.607 198.714 222.254 216.852 222.254 239.225C222.254 261.599 239.607 279.736 261.013 279.736Z" fill="#C1258B" stroke="#C1258B" stroke-width="1.3586" stroke-linecap="round" stroke-linejoin="round"/>
<path d="M236.137 162H198V171.417H236.137V162Z" fill="#60118C"/>
<path d="M236.002 176.713H197.865V186.131H236.002V176.713Z" fill="#A82FEC"/>
<path d="M282.344 373.536H400.642C400.642 373.536 405.069 373.293 405.069 367.935V357.299H277.684V370.208C278.305 372.237 280.17 373.617 282.344 373.536Z" fill="#BAC5F4"/>
<path d="M277.684 276.927L277.606 361.359L405.069 360.141V274.491C405.069 274.491 405.846 269.62 400.875 269.62H282.5C282.5 269.62 277.14 269.62 277.684 276.927Z" fill="#BAC5F4"/>
<path d="M331.279 396.187V372.724L349.921 373.536V394.157L331.279 396.187Z" fill="#BAC5F4"/>
<path d="M301.685 393.832H379.126L379.204 397.892H301.685V393.832Z" fill="#BAC5F4"/>
<path d="M340.211 363.063C342.309 363.063 343.94 364.768 343.94 366.96C343.94 369.152 342.309 370.857 340.211 370.857C338.114 370.857 336.483 369.152 336.483 366.96C336.483 364.768 338.192 363.063 340.211 363.063Z" fill="white"/>
<path d="M401.185 273.68H281.568V355.676H401.185V273.68Z" fill="#F8F8FF"/>
<path d="M287.549 277.901C288.558 277.901 289.413 278.794 289.413 279.85C289.413 280.905 288.558 281.798 287.549 281.798C286.539 281.798 285.684 280.905 285.684 279.85C285.684 278.794 286.539 277.901 287.549 277.901Z" fill="#FA5F5D"/>
<path d="M293.918 277.901C294.928 277.901 295.782 278.794 295.782 279.85C295.782 280.905 294.928 281.798 293.918 281.798C292.908 281.798 292.054 280.905 292.054 279.85C292.054 278.794 292.908 277.901 293.918 277.901Z" fill="#FDBC4E"/>
<path d="M300.598 277.901C301.608 277.901 302.462 278.794 302.462 279.85C302.462 280.905 301.608 281.798 300.598 281.798C299.588 281.798 298.734 280.905 298.734 279.85C298.734 278.794 299.588 277.901 300.598 277.901Z" fill="#37CD58"/>
<path d="M326.186 292.527C326.108 293.582 325.254 294.394 324.244 294.313H301.33C300.165 294.313 299 293.501 299 292.527V288.873C299 287.899 300.087 287.006 301.33 287.006H324.166C325.176 286.925 326.108 287.737 326.186 288.792V288.873V292.527Z" fill="url(#paint2_linear)"/>
<path d="M381.767 316.383C381.689 317.519 380.757 318.412 379.67 318.331H301.763C300.598 318.331 299.433 317.438 299.433 316.383V298.36C299.433 297.304 300.598 296.411 301.763 296.411H379.67C380.757 296.33 381.689 297.223 381.767 298.36V316.383Z" fill="url(#paint3_linear)"/>
<path d="M335.368 307.816C335.552 307.816 335.684 307.856 335.764 307.936C335.852 308.016 335.896 308.12 335.896 308.248C335.896 308.456 335.832 308.64 335.704 308.8C335.584 308.96 335.392 309.044 335.128 309.052C334.488 309.068 333.92 309.02 333.424 308.908C332.856 310.1 332.168 311.092 331.36 311.884C330.56 312.668 329.756 313.06 328.948 313.06C328.116 313.06 327.496 312.576 327.088 311.608C326.68 310.64 326.476 309.332 326.476 307.684C326.476 306.276 326.576 305.012 326.776 303.892C326.848 303.476 326.948 303.196 327.076 303.052C327.212 302.9 327.44 302.824 327.76 302.824C328.288 302.824 328.552 303.052 328.552 303.508C328.552 303.556 328.544 303.644 328.528 303.772C328.288 305.212 328.168 306.516 328.168 307.684C328.168 308.908 328.268 309.84 328.468 310.48C328.676 311.112 328.984 311.428 329.392 311.428C329.808 311.428 330.26 311.14 330.748 310.564C331.236 309.988 331.684 309.264 332.092 308.392C331.604 308.088 331.236 307.696 330.988 307.216C330.74 306.728 330.616 306.168 330.616 305.536C330.616 304.904 330.712 304.372 330.904 303.94C331.104 303.5 331.372 303.172 331.708 302.956C332.052 302.74 332.432 302.632 332.848 302.632C333.36 302.632 333.764 302.816 334.06 303.184C334.364 303.552 334.516 304.056 334.516 304.696C334.516 305.616 334.316 306.62 333.916 307.708C334.34 307.78 334.824 307.816 335.368 307.816ZM331.828 305.452C331.828 306.236 332.08 306.816 332.584 307.192C332.896 306.296 333.052 305.556 333.052 304.972C333.052 304.636 333.008 304.392 332.92 304.24C332.832 304.08 332.712 304 332.56 304C332.344 304 332.168 304.128 332.032 304.384C331.896 304.632 331.828 304.988 331.828 305.452ZM341.024 313.06C340.56 313.06 340.036 313.02 339.452 312.94C339.132 312.9 338.912 312.816 338.792 312.688C338.672 312.56 338.62 312.352 338.636 312.064C338.692 311.272 338.824 310.296 339.032 309.136C339.24 307.968 339.492 306.844 339.788 305.764C339.844 305.564 339.956 305.424 340.124 305.344C340.292 305.264 340.512 305.224 340.784 305.224C341.272 305.224 341.516 305.36 341.516 305.632C341.516 305.744 341.492 305.872 341.444 306.016C341.236 306.656 341.028 307.516 340.82 308.596C340.612 309.668 340.464 310.692 340.376 311.668C340.616 311.692 340.888 311.704 341.192 311.704C342.592 311.704 343.636 311.28 344.324 310.432C345.02 309.584 345.368 308.452 345.368 307.036C345.368 306.084 345.096 305.348 344.552 304.828C344.008 304.308 343.24 304.048 342.248 304.048C341.608 304.048 340.972 304.148 340.34 304.348C339.716 304.548 339.152 304.812 338.648 305.14C338.544 305.212 338.432 305.248 338.312 305.248C338.176 305.248 338.068 305.192 337.988 305.08C337.908 304.96 337.868 304.816 337.868 304.648C337.868 304.456 337.9 304.3 337.964 304.18C338.028 304.052 338.136 303.936 338.288 303.832C338.84 303.456 339.488 303.172 340.232 302.98C340.976 302.78 341.692 302.68 342.38 302.68C343.356 302.68 344.2 302.852 344.912 303.196C345.624 303.532 346.172 304.028 346.556 304.684C346.94 305.34 347.132 306.132 347.132 307.06C347.132 308.268 346.892 309.324 346.412 310.228C345.932 311.124 345.232 311.82 344.312 312.316C343.392 312.812 342.296 313.06 341.024 313.06ZM353.287 310.324C353.391 310.324 353.471 310.372 353.527 310.468C353.591 310.564 353.623 310.696 353.623 310.864C353.623 311.184 353.547 311.432 353.395 311.608C353.099 311.968 352.679 312.3 352.135 312.604C351.599 312.908 351.023 313.06 350.407 313.06C349.567 313.06 348.915 312.832 348.451 312.376C347.987 311.92 347.755 311.296 347.755 310.504C347.755 309.952 347.871 309.44 348.103 308.968C348.335 308.488 348.655 308.108 349.063 307.828C349.479 307.548 349.947 307.408 350.467 307.408C350.931 307.408 351.303 307.548 351.583 307.828C351.863 308.1 352.003 308.472 352.003 308.944C352.003 309.496 351.803 309.972 351.403 310.372C351.011 310.764 350.343 311.076 349.399 311.308C349.599 311.676 349.979 311.86 350.539 311.86C350.899 311.86 351.307 311.736 351.763 311.488C352.227 311.232 352.627 310.9 352.963 310.492C353.059 310.38 353.167 310.324 353.287 310.324ZM350.263 308.584C349.967 308.584 349.715 308.756 349.507 309.1C349.307 309.444 349.207 309.86 349.207 310.348V310.372C349.679 310.26 350.051 310.092 350.323 309.868C350.595 309.644 350.731 309.384 350.731 309.088C350.731 308.936 350.687 308.816 350.599 308.728C350.519 308.632 350.407 308.584 350.263 308.584ZM354.025 313.06C353.689 313.06 353.425 312.936 353.233 312.688C353.041 312.432 352.921 312.024 352.873 311.464C352.777 310.344 352.729 309.364 352.729 308.524V308.104C352.737 307.84 352.809 307.656 352.945 307.552C353.081 307.448 353.285 307.396 353.557 307.396C353.765 307.396 353.917 307.444 354.013 307.54C354.117 307.628 354.169 307.78 354.169 307.996C354.169 308.916 354.225 310.112 354.337 311.584C354.681 310.992 354.977 310.452 355.225 309.964C355.481 309.468 355.757 308.816 356.053 308.008C356.141 307.768 356.257 307.608 356.401 307.528C356.545 307.44 356.725 307.396 356.941 307.396C357.381 307.396 357.601 307.536 357.601 307.816C357.601 307.912 357.569 308.044 357.505 308.212C356.857 309.724 356.245 310.944 355.669 311.872C355.389 312.328 355.121 312.64 354.865 312.808C354.609 312.976 354.329 313.06 354.025 313.06Z" fill="white"/>
<path d="M325.065 331.808C325.065 332.863 324.211 333.756 323.201 333.756H301.763C300.52 333.756 299.433 332.863 299.433 331.808V321.903C299.433 320.848 300.598 319.955 301.763 319.955H323.046C324.055 319.874 324.987 320.685 325.065 321.822V321.903V331.808Z" fill="url(#paint4_linear)"/>
<path d="M353.028 331.808C353.028 332.863 352.173 333.756 351.163 333.756H329.726C328.483 333.756 327.395 332.863 327.395 331.808V321.903C327.395 320.848 328.56 319.955 329.726 319.955H351.008C352.018 319.874 352.95 320.685 353.028 321.822V321.903V331.808Z" fill="url(#paint5_linear)"/>
<path d="M381.767 331.808C381.689 332.944 380.757 333.837 379.67 333.756H358.387C357.222 333.837 356.29 332.944 356.135 331.808V321.903C356.212 320.685 357.222 319.873 358.387 319.955H379.67C380.757 319.873 381.767 320.767 381.845 321.903L381.767 331.808Z" fill="url(#paint6_linear)"/>
<path d="M353.028 337.409C352.872 337.815 352.562 338.059 352.173 338.14C352.096 338.14 352.096 338.14 352.018 337.815H328.56C328.094 338.14 327.395 337.815 327.395 337.409V337.085C327.395 336.679 328.094 336.273 328.56 336.192H352.018C352.406 336.273 352.639 336.597 352.717 336.922C352.717 337.003 352.717 337.003 352.95 337.085L353.028 337.409Z" fill="#E9EDFB"/>
<path d="M353.028 340.575C352.872 340.981 352.562 341.306 352.173 341.387C352.173 341.387 352.096 341.387 352.096 341.063H328.56C328.094 341.387 327.395 341.063 327.395 340.575V340.251C327.395 339.845 328.094 339.52 328.56 339.439H352.018C352.406 339.52 352.795 339.845 352.95 340.251L353.028 340.575Z" fill="#E9EDFB"/>
<path d="M353.028 343.823C352.872 344.31 352.484 344.635 352.096 344.716C352.096 344.554 352.096 344.472 352.096 344.31H328.56C328.172 344.554 327.706 344.472 327.473 344.066C327.395 343.985 327.395 343.904 327.395 343.823V343.498C327.395 343.092 328.094 342.849 328.56 342.686H352.018C352.406 342.767 352.795 343.092 352.95 343.498L353.028 343.823Z" fill="#E9EDFB"/>
<path d="M353.028 346.989C352.795 347.476 352.484 347.963 352.096 348.369H328.56C328.094 347.963 327.395 347.476 327.395 346.989V346.664C327.395 346.258 328.094 345.771 328.56 345.934H352.018C352.329 345.852 352.639 346.096 352.717 346.421C352.717 346.502 352.717 346.583 352.717 346.664C352.717 346.664 352.717 346.664 352.95 346.745L353.028 346.989Z" fill="#E9EDFB"/>
<path d="M339.978 350.236C339.978 350.642 339.745 350.805 339.279 350.805H328.483C328.017 350.805 327.395 350.642 327.395 350.236V349.912C327.395 349.506 328.017 349.181 328.483 349.181H339.279C339.668 349.181 339.978 349.506 339.978 349.912V350.236Z" fill="#E9EDFB"/>
<path d="M381.767 337.409C381.301 337.815 381.379 338.14 380.913 337.815H357.455C357.067 338.14 356.678 337.896 356.678 337.49C356.678 337.49 356.678 337.49 356.911 337.409V337.085C356.678 336.679 356.989 336.273 357.455 336.192H380.913C381.379 336.354 381.301 336.679 381.767 337.085V337.409Z" fill="#E9EDFB"/>
<path d="M381.767 340.575C381.301 340.981 381.379 341.387 380.913 341.063H357.455C356.989 341.387 356.678 341.063 356.911 340.575V340.251C356.678 339.845 356.989 339.52 357.455 339.439H380.913C381.379 339.601 381.301 339.845 381.767 340.251V340.575Z" fill="#E9EDFB"/>
<path d="M381.767 343.823C381.301 344.229 381.379 344.716 380.913 344.31H357.455C356.989 344.635 356.678 344.31 356.911 343.823V343.498C356.678 343.092 356.989 342.849 357.455 342.686H380.913C381.379 342.849 381.301 343.092 381.767 343.498V343.823Z" fill="#E9EDFB"/>
<path d="M381.767 346.989C381.301 347.395 381.379 347.963 380.913 348.369H357.455C356.989 347.882 356.678 347.476 356.911 346.989V346.664C356.756 346.502 356.756 346.177 356.911 346.015C357.067 345.934 357.222 345.852 357.377 345.934H380.913C381.379 345.771 381.301 346.258 381.767 346.664V346.989Z" fill="#E9EDFB"/>
<path d="M368.873 350.236C368.873 350.642 368.873 350.805 368.485 350.805H357.61C357.144 350.805 356.911 350.642 356.911 350.236V349.912C356.911 349.506 357.222 349.181 357.61 349.181H368.407C368.873 349.181 368.795 349.506 368.795 349.912L368.873 350.236Z" fill="#E9EDFB"/>
<path d="M324.288 337.409C324.599 337.815 324.444 338.14 323.978 337.815H300.442C300.132 338.059 299.743 337.978 299.588 337.734C299.51 337.653 299.51 337.572 299.433 337.409V337.085C299.588 336.597 299.976 336.273 300.442 336.192H323.9C324.366 336.354 324.521 336.679 324.211 337.085L324.288 337.409Z" fill="#E9EDFB"/>
<path d="M324.288 340.575C324.599 340.981 324.444 341.387 323.978 341.063H300.442C299.976 341.468 299.588 341.063 299.433 340.575V340.251C299.51 339.845 299.976 339.52 300.442 339.439H323.9C324.366 339.601 324.521 339.845 324.211 340.251L324.288 340.575Z" fill="#E9EDFB"/>
<path d="M324.288 343.823C324.599 344.229 324.444 344.716 323.978 344.31H300.442C299.976 344.716 299.588 344.31 299.433 343.823V343.498C299.51 343.092 299.976 342.849 300.442 342.686H323.9C324.366 342.849 324.521 343.092 324.211 343.498L324.288 343.823Z" fill="#E9EDFB"/>
<path d="M317.298 345.934H323.978C324.444 345.771 324.599 346.258 324.288 346.664V346.989C324.599 347.395 324.444 347.963 323.978 348.369H300.442C299.976 348.044 299.666 347.557 299.433 346.989V346.664C299.51 346.177 299.976 345.852 300.442 345.934H317.298Z" fill="#E9EDFB"/>
<path d="M312.637 350.236C312.637 350.642 312.404 350.805 311.938 350.805H300.287C299.821 350.805 299.433 350.642 299.433 350.236V349.912C299.51 349.506 299.899 349.181 300.287 349.181H311.938C312.327 349.181 312.637 349.506 312.637 349.83C312.637 349.83 312.637 349.83 312.637 349.912V350.236Z" fill="#E9EDFB"/>
<path d="M79.6963 567.468C79.6963 567.468 86.5316 528.662 50.491 507.879C14.528 487.096 12.8191 487.339 5.67315 484.985C1.55644 483.524 -2.63795 486.609 2.10015 492.779C6.83826 499.03 4.11967 500.572 13.5959 503.333C23.0721 506.093 24.4702 518.108 29.2083 521.112C33.9464 524.116 38.0631 524.928 52.5105 531.422C65.6374 537.349 76.8224 554.073 76.8224 559.918C76.8224 565.763 89.6386 567.793 89.6386 567.793L79.6963 567.468Z" fill="url(#paint7_linear)"/>
<path d="M78.4535 562.029C78.4535 562.029 87.6191 526.308 56.0835 506.986C24.5479 487.664 13.5959 487.908 7.30434 485.553C3.73135 484.173 13.5182 488.882 17.6349 494.565C21.7516 500.329 20.7419 499.03 28.1209 503.251C36.665 508.204 40.238 512.993 45.2868 513.968C52.5882 515.429 50.4133 523.385 63.0741 529.312C74.4922 534.751 75.968 549.283 75.968 554.722C75.968 560.243 87.153 562.029 87.153 562.029H78.4535Z" fill="url(#paint8_linear)"/>
<path d="M110.144 556.752L113.717 553.18C115.426 551.556 117.523 550.338 119.776 549.689C130.883 546.604 165.914 535.157 180.439 507.473C180.595 507.229 180.439 506.905 180.206 506.823H180.129C180.051 506.823 179.973 506.742 179.973 506.742C175.157 506.336 150.224 505.93 116.902 535.644C116.281 536.131 115.737 536.781 115.271 537.349C114.417 538.567 113.018 540.677 112.397 541.733C111.543 543.356 113.251 546.035 110.921 548.39C108.591 550.744 103.542 556.671 103.542 556.671L107.659 559.837L110.144 556.752Z" fill="url(#paint9_linear)"/>
<path d="M91.1921 554.479C91.1921 554.479 100.746 465.095 74.6475 437.005C50.6463 411.188 50.2579 434.894 50.3356 438.953C50.3356 439.359 50.491 439.603 50.5686 439.928C56.2388 450.969 58.1807 463.715 56.1612 476.055C53.6756 488.963 71.3852 487.258 72.9387 500.004C74.4922 512.75 80.6284 532.397 80.007 541.408C79.3856 550.419 79.308 559.187 79.308 559.187L88.9395 559.512L91.1921 554.479Z" fill="url(#paint10_linear)"/>
<path d="M91.1144 554.722C91.1921 554.56 91.2697 554.316 91.2697 554.073C91.8911 548.227 99.8915 464.039 74.7252 436.924C50.8793 411.188 50.491 434.488 50.6463 438.71C50.724 439.197 50.957 439.684 51.19 440.09C52.9765 442.769 60.8216 454.46 67.8122 453.161C87.153 449.589 70.0648 473.863 80.5508 486.852C88.9395 497.081 86.1433 532.478 85.5219 541.57C85.1335 546.685 84.2791 551.718 83.0363 556.671C82.8033 557.97 83.6577 559.187 84.8228 559.431C84.9005 559.431 84.9782 559.431 84.9782 559.431C85.1335 559.431 85.2889 559.512 85.4442 559.512H87.2307C88.3181 559.593 89.2502 559.025 89.7163 558.051L91.1144 554.722Z" fill="url(#paint11_linear)"/>
<path d="M100.513 559.918C100.513 559.918 102.222 535.157 116.048 520.056C119.931 515.916 124.825 513.075 130.184 511.776C134.301 510.802 141.059 507.311 146.962 495.701C146.962 495.701 158.069 479.221 169.254 474.269C180.362 469.235 169.254 468.667 169.254 468.667C169.254 468.667 137.408 474.999 116.98 494.483C115.659 495.701 114.339 496.838 112.863 497.812C107.581 501.628 92.9009 515.835 93.5223 557.482L100.513 559.918Z" fill="url(#paint12_linear)"/>
<path d="M128.165 557.97C128.165 557.97 128.631 554.966 124.825 555.047C121.485 555.209 65.249 554.722 65.249 554.722C65.249 554.722 62.6081 554.722 62.7634 556.833C62.9188 558.944 71.4629 607.898 72.2396 608.872C72.628 609.522 73.1717 610.009 73.8708 610.171C74.9582 610.496 114.417 610.252 114.417 610.252C115.349 610.09 116.048 609.359 116.125 608.385C116.125 608.385 128.242 558.538 128.165 557.97Z" fill="url(#paint13_linear)"/>
<path d="M597.626 592.548C595.906 584.959 595.333 575.24 594.186 575.041H592.913L580.748 575.174C580.748 575.174 578.201 587.289 576.927 592.348C576.799 592.681 576.608 593.546 576.354 594.146C576.099 595.011 576.099 595.943 576.099 596.808C576.354 601.401 578.073 605.329 581.958 607.392C586.353 609.656 589.665 611.852 594.123 607.392C598.645 602.866 599.345 600.137 597.626 592.548Z" fill="#4B44BE"/>
<path d="M559.094 576.239L543.681 577.104C543.681 577.104 537.567 588.154 528.651 590.817C520.244 593.347 506.359 599.471 512.537 602.932C517.123 605.728 546.802 603.199 553.999 603.798C559.412 604.264 560.877 600.802 560.304 593.214C559.922 587.489 559.094 576.239 559.094 576.239Z" fill="#4B44BE"/>
<path d="M540.624 375.139C540.624 375.139 530.306 464.007 529.606 469.798C528.905 475.589 533.172 505.212 533.172 510.87C533.172 516.528 543.299 577.171 543.299 577.171L559.412 576.439C559.412 576.439 556.164 487.172 556.546 482.845C556.865 478.518 574.507 426.729 574.507 426.729C574.507 426.729 575.78 440.442 575.78 444.769C575.78 449.096 580.621 575.374 580.621 575.374H594.632L614.503 389.385L614.185 385.79L540.624 375.139Z" fill="url(#paint14_linear)"/>
<path d="M587.945 203.462C587.945 203.462 572.532 209.72 569.093 211.117C565.654 212.582 563.679 216.975 563.679 216.975C563.679 216.975 561.96 215.91 561.96 218.906C561.96 221.901 563.361 228.758 564.507 230.555C566.354 233.551 567.946 236.546 569.475 239.675C570.876 242.803 570.367 249.261 568.902 250.259C567.437 251.191 541.452 275.754 541.452 275.754L519.798 345.317L522.664 367.284L527.058 388.919C527.058 388.919 526.167 390.45 527.95 392.314C529.797 394.111 537.631 407.558 537.631 407.558L540.306 387.72L531.453 358.298L528.332 333.535L549.031 289.334L620.745 302.647L628.578 350.842L614.057 391.914L611.51 411.951L623.674 400.768C624.375 400.169 625.712 397.04 626.413 395.376L633.673 374.008L639.087 339.859C639.087 339.859 593.804 254.586 591.511 249.527C590.492 247.263 591.639 241.738 592.212 238.943C592.785 236.413 593.932 233.151 595.078 232.219C596.798 230.289 597.626 227.56 598.071 225.03C598.071 223.233 598.772 216.243 597.052 217.974C596.734 218.44 595.46 216.31 594.887 213.514C593.804 209.453 591.066 206.058 587.945 203.462Z" fill="url(#paint15_linear)"/>
<path d="M582.085 273.025C580.939 274.09 579.219 273.957 578.2 272.892C577.372 271.56 576.608 270.229 576.035 268.898C574.889 266.501 566.036 252.922 566.036 252.922C566.036 252.922 545.019 258.58 541.643 260.843C538.204 263.24 535.083 266.501 533.937 270.695C532.79 274.889 516.55 324.282 515.785 327.277C514.957 330.273 510.818 335.066 512.792 347.248C514.766 359.429 525.657 390.516 526.803 390.849C527.95 391.182 539.541 385.191 539.541 385.191C539.541 385.191 530.37 346.515 530.37 342.654C530.37 338.793 538.65 327.876 541.961 320.421C545.273 312.965 547.693 306.508 548.84 303.247C549.986 299.985 538.968 367.551 538.968 367.551C538.968 367.551 538.713 379.799 540.942 380.997C542.98 382.062 567.692 391.914 573.487 394.244C574.061 394.51 574.761 394.111 575.08 393.512L578.774 382.595C578.774 382.462 578.901 382.328 579.028 382.462C579.156 382.462 579.156 382.595 579.156 382.595L582.595 394.51C582.722 395.109 583.423 395.442 583.996 395.376L614.439 388.519C614.439 388.519 613.994 329.807 614.567 319.955C615.013 310.369 613.866 304.911 615.586 307.573C617.433 310.436 625.139 336.863 625.139 341.323C625.139 345.783 616.541 384.791 616.541 384.791L627.941 391.382C627.941 391.382 643.354 348.512 644.118 342.854C644.946 337.196 645.265 334.2 642.717 328.542C640.17 322.884 626.158 271.627 626.158 271.627C626.158 271.627 624.757 265.37 614.439 262.108C604.122 258.846 596.415 254.053 594.568 254.186C592.722 254.32 586.989 265.569 584.442 268.964C583.232 270.229 583.487 270.828 582.085 273.025Z" fill="url(#paint16_linear)"/>
<path d="M587.818 203.529C587.818 203.529 570.43 210.119 566.928 212.915C564.253 214.978 563.679 216.909 563.679 216.909C563.679 216.909 561.832 216.043 561.96 218.839C562.087 221.635 559.922 214.512 559.285 212.249C558.839 209.986 558.712 203.595 563.425 198.936C568.138 194.276 573.296 190.748 577.691 191.014C582.086 191.28 585.652 192.545 589.091 196.073C592.53 199.535 593.358 199.335 594.059 199.668C594.76 200.001 598.326 203.995 598.772 208.322C599.218 212.648 597.944 219.039 597.944 219.039C597.944 219.039 597.116 218.107 596.224 218.773C595.333 219.438 595.078 214.712 592.085 208.788C589.919 204.394 587.818 203.529 587.818 203.529Z" fill="url(#paint17_linear)"/>
<path opacity="0.07" d="M576.799 417.609C574.825 423.6 567.119 435.383 562.087 442.505C557.056 449.561 541.516 464.473 542.535 482.645C543.554 500.818 553.999 547.549 553.999 551.742C553.999 555.936 550.114 575.773 547.12 581.897C544.127 588.021 542.726 598.938 544.254 598.938C546.993 598.805 549.859 598.472 552.661 597.74C555.209 597.141 557.693 596.542 560.113 595.677C561.132 595.211 561.387 591.683 561.387 591.683C561.514 590.218 561.259 588.687 560.941 587.356C560.24 585.092 559.667 582.763 559.348 580.499C558.775 563.458 557.31 523.917 557.629 521.121C558.202 515.929 554.19 489.901 557.884 477.054C561.514 464.273 576.799 417.609 576.799 417.609Z" fill="black"/>
<path opacity="0.07" d="M539.541 385.191L536.866 406.559C536.866 406.559 539.541 411.019 540.306 407.291C541.134 403.563 546.611 396.574 543.172 391.581C539.732 386.589 539.541 385.191 539.541 385.191Z" fill="black"/>
<path opacity="0.07" d="M614.248 391.115L613.357 401.3L612.21 411.152C612.21 411.152 608.325 414.148 608.389 410.287C608.516 406.426 601.829 400.701 606.924 396.84C612.019 392.979 614.248 391.115 614.248 391.115Z" fill="black"/>
<path opacity="0.07" d="M565.908 253.055C566.609 252.922 562.597 253.987 566.163 252.789C572.277 250.725 569.73 238.743 569.73 238.743C569.73 238.743 570.303 243.203 576.035 245C581.767 246.798 583.295 245.466 574.634 249.66C566.036 253.854 570.494 255.318 571.067 260.843" fill="black"/>
<path opacity="0.07" d="M548.649 307.374L538.968 368.616C538.968 368.616 539.095 379.533 540.942 381.13C542.789 382.661 548.967 383.793 550.368 384.858C551.77 385.923 566.673 391.115 562.788 382.328C561.896 380.398 541.77 368.616 550.751 356.234C559.731 343.853 558.075 326.811 553.871 314.896C551.324 307.906 550.05 300.451 550.432 293.062L548.649 307.374Z" fill="black"/>
</g>
<defs>
<linearGradient id="paint0_linear" x1="529.182" y1="195.711" x2="529.182" y2="214.87" gradientUnits="userSpaceOnUse">
<stop stop-color="#A82FEC"/>
<stop offset="1" stop-color="#A82FEC" stop-opacity="0"/>
</linearGradient>
<linearGradient id="paint1_linear" x1="529.182" y1="249.049" x2="529.182" y2="268.208" gradientUnits="userSpaceOnUse">
<stop stop-color="#C1258B"/>
<stop offset="1" stop-color="white"/>
</linearGradient>
<linearGradient id="paint2_linear" x1="298.981" y1="290.645" x2="326.167" y2="290.645" gradientUnits="userSpaceOnUse">
<stop stop-color="#C1258B"/>
<stop offset="1" stop-color="#60118C"/>
</linearGradient>
<linearGradient id="paint3_linear" x1="299.414" y1="307.357" x2="381.748" y2="307.357" gradientUnits="userSpaceOnUse">
<stop stop-color="#E5A4ED"/>
<stop offset="1" stop-color="#7A5BF5"/>
</linearGradient>
<linearGradient id="paint4_linear" x1="299.414" y1="326.838" x2="325.046" y2="326.838" gradientUnits="userSpaceOnUse">
<stop stop-color="#E5A4ED"/>
<stop offset="1" stop-color="#7A5BF5"/>
</linearGradient>
<linearGradient id="paint5_linear" x1="327.376" y1="326.838" x2="353.009" y2="326.838" gradientUnits="userSpaceOnUse">
<stop stop-color="#E5A4ED"/>
<stop offset="1" stop-color="#7A5BF5"/>
</linearGradient>
<linearGradient id="paint6_linear" x1="356.116" y1="326.841" x2="381.748" y2="326.841" gradientUnits="userSpaceOnUse">
<stop stop-color="#E5A4ED"/>
<stop offset="1" stop-color="#7A5BF5"/>
</linearGradient>
<linearGradient id="paint7_linear" x1="0.105332" y1="526.136" x2="89.8151" y2="526.136" gradientUnits="userSpaceOnUse">
<stop stop-color="#93FD93"/>
<stop offset="0.51" stop-color="#21C2C1"/>
<stop offset="1" stop-color="#84F599"/>
</linearGradient>
<linearGradient id="paint8_linear" x1="33.7188" y1="496.523" x2="87.4202" y2="559.516" gradientUnits="userSpaceOnUse">
<stop stop-color="#93FD93"/>
<stop offset="0.51" stop-color="#21C2C1"/>
<stop offset="1" stop-color="#84F599"/>
</linearGradient>
<linearGradient id="paint9_linear" x1="92.4133" y1="570.384" x2="164.784" y2="516.809" gradientUnits="userSpaceOnUse">
<stop stop-color="#93FD93"/>
<stop offset="0.51" stop-color="#21C2C1"/>
<stop offset="1" stop-color="#84F599"/>
</linearGradient>
<linearGradient id="paint10_linear" x1="110.03" y1="541.602" x2="46.5322" y2="464.693" gradientUnits="userSpaceOnUse">
<stop stop-color="#93FD93"/>
<stop offset="0.51" stop-color="#21C2C1"/>
<stop offset="1" stop-color="#84F599"/>
</linearGradient>
<linearGradient id="paint11_linear" x1="50.603" y1="492.25" x2="92.9518" y2="492.25" gradientUnits="userSpaceOnUse">
<stop stop-color="#93FD93"/>
<stop offset="0.51" stop-color="#21C2C1"/>
<stop offset="1" stop-color="#84F599"/>
</linearGradient>
<linearGradient id="paint12_linear" x1="89.3218" y1="564.566" x2="137.982" y2="497.237" gradientUnits="userSpaceOnUse">
<stop stop-color="#93FD93"/>
<stop offset="0.51" stop-color="#21C2C1"/>
<stop offset="1" stop-color="#84F599"/>
</linearGradient>
<linearGradient id="paint13_linear" x1="62.875" y1="582.487" x2="128.237" y2="582.487" gradientUnits="userSpaceOnUse">
<stop stop-color="#E5A4ED"/>
<stop offset="1" stop-color="#7A5BF5"/>
</linearGradient>
<linearGradient id="paint14_linear" x1="529.493" y1="476.142" x2="614.393" y2="476.142" gradientUnits="userSpaceOnUse">
<stop stop-color="#4B45BD"/>
<stop offset="1" stop-color="#58CAEA"/>
</linearGradient>
<linearGradient id="paint15_linear" x1="519.799" y1="307.716" x2="639.105" y2="307.716" gradientUnits="userSpaceOnUse">
<stop stop-color="#F87B58"/>
<stop offset="0.41" stop-color="#F89453"/>
<stop offset="0.71" stop-color="#F8C548"/>
<stop offset="1" stop-color="#F89C51"/>
</linearGradient>
<linearGradient id="paint16_linear" x1="512.269" y1="324.125" x2="644.837" y2="324.125" gradientUnits="userSpaceOnUse">
<stop stop-color="#E5A4ED"/>
<stop offset="1" stop-color="#7A5BF5"/>
</linearGradient>
<linearGradient id="paint17_linear" x1="559.128" y1="205.191" x2="598.991" y2="205.191" gradientUnits="userSpaceOnUse">
<stop stop-color="#4B45BD"/>
<stop offset="1" stop-color="#7A5BF5"/>
</linearGradient>
<clipPath id="clip0">
<rect width="955" height="690" fill="white"/>
</clipPath>
</defs>
</svg>
