<svg width="16" height="16" viewBox="0 0 16 16" fill="none" xmlns="http://www.w3.org/2000/svg">
<path d="M7.86396 2.67596L7.99996 2.66663C8.24161 2.66664 8.47508 2.75415 8.6572 2.91298C8.83932 3.07181 8.95776 3.29122 8.99063 3.53063L8.99996 3.66663V6.99863L12.3333 6.99996C12.5749 6.99997 12.8084 7.08748 12.9905 7.24632C13.1727 7.40515 13.2911 7.62455 13.324 7.86396L13.3333 7.99996C13.3333 8.24161 13.2458 8.47508 13.0869 8.6572C12.9281 8.83932 12.7087 8.95776 12.4693 8.99063L12.3333 8.99996L8.99996 8.99863V12.3333C8.99995 12.5749 8.91244 12.8084 8.7536 12.9905C8.59477 13.1727 8.37536 13.2911 8.13596 13.324L7.99996 13.3333C7.75831 13.3333 7.52484 13.2458 7.34272 13.0869C7.1606 12.9281 7.04216 12.7087 7.00929 12.4693L6.99996 12.3333V8.99863L3.66663 8.99996C3.42498 8.99995 3.1915 8.91244 3.00939 8.7536C2.82727 8.59477 2.70882 8.37536 2.67596 8.13596L2.66663 7.99996C2.66664 7.75831 2.75415 7.52484 2.91298 7.34272C3.07181 7.1606 3.29122 7.04216 3.53063 7.00929L3.66663 6.99996L6.99996 6.99863V3.66663C6.99997 3.42498 7.08748 3.1915 7.24632 3.00939C7.40515 2.82727 7.62455 2.70882 7.86396 2.67596L7.99996 2.66663L7.86396 2.67596Z" fill="black"/>
</svg>
